<svg width="32" height="32" viewBox="0 0 32 32" fill="none" xmlns="http://www.w3.org/2000/svg">
<path d="M31.9734 2.69723V8.03056C31.9734 8.38418 31.8329 8.72332 31.5828 8.97337C31.3328 9.22342 30.9937 9.36389 30.64 9.36389C30.2864 9.36389 29.9473 9.22342 29.6972 8.97337C29.4472 8.72332 29.3067 8.38418 29.3067 8.03056V4.61323L22.24 11.6426C21.9879 11.8848 21.6507 12.0183 21.301 12.0144C20.9514 12.0104 20.6173 11.8692 20.3708 11.6212C20.1242 11.3733 19.9849 11.0384 19.9829 10.6888C19.9809 10.3391 20.1164 10.0027 20.36 9.75189L27.4534 2.69723H23.9734C23.6197 2.69723 23.2806 2.55675 23.0306 2.3067C22.7805 2.05666 22.64 1.71752 22.64 1.36389C22.64 1.01027 22.7805 0.671134 23.0306 0.421086C23.2806 0.171037 23.6197 0.0305614 23.9734 0.0305614H29.3067C30.0139 0.0305614 30.6922 0.311513 31.1923 0.81161C31.6924 1.31171 31.9734 1.98998 31.9734 2.69723ZM30.7667 22.3492C31.5394 23.124 31.9733 24.1736 31.9733 25.2679C31.9733 26.3621 31.5394 27.4117 30.7667 28.1866L29.5507 29.5866C18.6294 40.0372 -7.94263 13.4732 2.3507 2.51989L3.8827 1.18656C4.65883 0.435589 5.69916 0.019976 6.77908 0.0294555C7.85901 0.0389351 8.89188 0.472747 9.65471 1.23723C9.69471 1.27856 12.1654 4.48923 12.1654 4.48923C12.8983 5.25916 13.3064 6.28185 13.3049 7.34483C13.3034 8.40781 12.8924 9.42935 12.1574 10.1972L10.612 12.1399C11.4665 14.216 12.7228 16.1029 14.3087 17.692C15.8946 19.2812 17.779 20.5412 19.8534 21.3999L21.8067 19.8466C22.5745 19.1119 23.5958 18.7012 24.6584 18.6997C25.7211 18.6982 26.7435 19.1061 27.5134 19.8386C27.5134 19.8386 30.7254 22.3092 30.7667 22.3492ZM28.9334 24.2879C28.9334 24.2879 25.7427 21.8319 25.7014 21.7919C25.4267 21.5195 25.0555 21.3667 24.6687 21.3667C24.2819 21.3667 23.9107 21.5195 23.636 21.7919C23.6 21.8266 20.9107 23.9706 20.9107 23.9706C20.7295 24.1148 20.5138 24.2094 20.2849 24.2449C20.056 24.2804 19.8218 24.2557 19.6054 24.1732C16.9163 23.1733 14.4739 21.6065 12.4438 19.5792C10.4138 17.5519 8.84367 15.1116 7.84004 12.4239C7.75224 12.2054 7.72387 11.9675 7.75783 11.7345C7.79179 11.5015 7.88686 11.2816 8.03337 11.0972C8.03337 11.0972 10.176 8.40789 10.212 8.37189C10.4844 8.09721 10.6372 7.72605 10.6372 7.33923C10.6372 6.95241 10.4844 6.58125 10.212 6.30656C10.172 6.26656 7.71604 3.07456 7.71604 3.07456C7.43741 2.8244 7.07364 2.69028 6.6993 2.6997C6.32496 2.70912 5.9684 2.86136 5.7027 3.12523L4.1707 4.45856C-3.35463 13.5012 19.676 35.2559 27.6 27.7679L28.816 26.3679C29.1027 26.1048 29.2754 25.7402 29.2973 25.3517C29.3192 24.9633 29.1887 24.5816 28.9334 24.2879V24.2879Z" fill="#234E9B"/>
</svg>
