<svg width="32" height="32" viewBox="0 0 32 32" fill="none" xmlns="http://www.w3.org/2000/svg">
<g clip-path="url(#clip0_60_1198)">
<path d="M30.6667 29.3333H6.66667C5.6058 29.3333 4.58839 28.9119 3.83824 28.1618C3.08809 27.4116 2.66667 26.3942 2.66667 25.3333V1.33333C2.66667 0.979711 2.52619 0.640573 2.27614 0.390524C2.02609 0.140476 1.68696 0 1.33333 0C0.979711 0 0.640573 0.140476 0.390524 0.390524C0.140476 0.640573 0 0.979711 0 1.33333L0 25.3333C0.00211714 27.1008 0.705176 28.7953 1.95496 30.045C3.20474 31.2948 4.89921 31.9979 6.66667 32H30.6667C31.0203 32 31.3594 31.8595 31.6095 31.6095C31.8595 31.3594 32 31.0203 32 30.6667C32 30.313 31.8595 29.9739 31.6095 29.7239C31.3594 29.4738 31.0203 29.3333 30.6667 29.3333Z" fill="#234E9B"/>
<path d="M8.00032 26.6665C8.35394 26.6665 8.69308 26.526 8.94313 26.276C9.19318 26.0259 9.33365 25.6868 9.33365 25.3332V15.9998C9.33365 15.6462 9.19318 15.3071 8.94313 15.057C8.69308 14.807 8.35394 14.6665 8.00032 14.6665C7.6467 14.6665 7.30756 14.807 7.05752 15.057C6.80747 15.3071 6.66699 15.6462 6.66699 15.9998V25.3332C6.66699 25.6868 6.80747 26.0259 7.05752 26.276C7.30756 26.526 7.6467 26.6665 8.00032 26.6665Z" fill="#234E9B"/>
<path d="M13.333 13.3333V25.3333C13.333 25.6869 13.4735 26.0261 13.7235 26.2761C13.9736 26.5262 14.3127 26.6666 14.6663 26.6666C15.02 26.6666 15.3591 26.5262 15.6092 26.2761C15.8592 26.0261 15.9997 25.6869 15.9997 25.3333V13.3333C15.9997 12.9797 15.8592 12.6406 15.6092 12.3905C15.3591 12.1405 15.02 12 14.6663 12C14.3127 12 13.9736 12.1405 13.7235 12.3905C13.4735 12.6406 13.333 12.9797 13.333 13.3333Z" fill="#234E9B"/>
<path d="M20 17.3333V25.3333C20 25.6869 20.1405 26.0261 20.3905 26.2761C20.6406 26.5262 20.9797 26.6666 21.3333 26.6666C21.687 26.6666 22.0261 26.5262 22.2762 26.2761C22.5262 26.0261 22.6667 25.6869 22.6667 25.3333V17.3333C22.6667 16.9797 22.5262 16.6406 22.2762 16.3905C22.0261 16.1405 21.687 16 21.3333 16C20.9797 16 20.6406 16.1405 20.3905 16.3905C20.1405 16.6406 20 16.9797 20 17.3333Z" fill="#234E9B"/>
<path d="M26.667 11.9998V25.3332C26.667 25.6868 26.8075 26.0259 27.0575 26.276C27.3076 26.526 27.6467 26.6665 28.0003 26.6665C28.354 26.6665 28.6931 26.526 28.9431 26.276C29.1932 26.0259 29.3337 25.6868 29.3337 25.3332V11.9998C29.3337 11.6462 29.1932 11.3071 28.9431 11.057C28.6931 10.807 28.354 10.6665 28.0003 10.6665C27.6467 10.6665 27.3076 10.807 27.0575 11.057C26.8075 11.3071 26.667 11.6462 26.667 11.9998Z" fill="#234E9B"/>
<path d="M8.00004 12C8.35363 11.9999 8.69272 11.8594 8.94271 11.6093L13.724 6.82797C13.9782 6.58587 14.3157 6.45083 14.6667 6.45083C15.0177 6.45083 15.3552 6.58587 15.6094 6.82797L18.5054 9.72397C19.2555 10.4739 20.2727 10.8951 21.3334 10.8951C22.394 10.8951 23.4113 10.4739 24.1614 9.72397L31.6094 2.27597C31.8523 2.0245 31.9866 1.6877 31.9836 1.33811C31.9806 0.988509 31.8403 0.654093 31.5931 0.406882C31.3459 0.159671 31.0115 0.0194457 30.6619 0.0164078C30.3123 0.0133699 29.9755 0.147762 29.724 0.39064L22.276 7.83731C22.026 8.08727 21.6869 8.22769 21.3334 8.22769C20.9798 8.22769 20.6407 8.08727 20.3907 7.83731L17.4947 4.94264C16.7446 4.19276 15.7274 3.77149 14.6667 3.77149C13.6061 3.77149 12.5888 4.19276 11.8387 4.94264L7.05738 9.72397C6.87096 9.91044 6.74402 10.148 6.6926 10.4066C6.64117 10.6652 6.66758 10.9332 6.76847 11.1768C6.86936 11.4204 7.04022 11.6287 7.25943 11.7752C7.47864 11.9217 7.73637 11.9999 8.00004 12V12Z" fill="#234E9B"/>
</g>
<defs>
<clipPath id="clip0_60_1198">
<rect width="32" height="32" fill="white"/>
</clipPath>
</defs>
</svg>
