<svg width="26" height="26" viewBox="0 0 26 26" fill="none" xmlns="http://www.w3.org/2000/svg">
<g clip-path="url(#clip0_60_1494)">
<path d="M24.1792 4.80026L9.20859 19.7698C9.10793 19.8708 8.98832 19.951 8.85661 20.0057C8.72489 20.0604 8.58367 20.0886 8.44104 20.0886C8.29842 20.0886 8.1572 20.0604 8.02548 20.0057C7.89377 19.951 7.77415 19.8708 7.6735 19.7698L1.88417 13.975C1.78352 13.874 1.6639 13.7938 1.53219 13.7391C1.40047 13.6844 1.25925 13.6562 1.11663 13.6562C0.974003 13.6562 0.832782 13.6844 0.701068 13.7391C0.569354 13.7938 0.449739 13.874 0.349087 13.975V13.975C0.248037 14.0757 0.167857 14.1953 0.113147 14.327C0.0584365 14.4587 0.0302734 14.5999 0.0302734 14.7425C0.0302734 14.8852 0.0584365 15.0264 0.113147 15.1581C0.167857 15.2898 0.248037 15.4094 0.349087 15.5101L6.14059 21.3005C6.75153 21.9103 7.57947 22.2528 8.44267 22.2528C9.30587 22.2528 10.1338 21.9103 10.7448 21.3005L25.7143 6.33426C25.8151 6.23363 25.8952 6.11408 25.9498 5.98247C26.0044 5.85085 26.0325 5.70975 26.0325 5.56726C26.0325 5.42476 26.0044 5.28367 25.9498 5.15205C25.8952 5.02044 25.8151 4.90089 25.7143 4.80026C25.6136 4.69921 25.494 4.61903 25.3623 4.56432C25.2306 4.50961 25.0893 4.48145 24.9467 4.48145C24.8041 4.48145 24.6629 4.50961 24.5312 4.56432C24.3994 4.61903 24.2798 4.69921 24.1792 4.80026Z" fill="white"/>
</g>
<defs>
<clipPath id="clip0_60_1494">
<rect width="26" height="26" fill="white"/>
</clipPath>
</defs>
</svg>
