<svg width="32" height="32" viewBox="0 0 32 32" fill="none" xmlns="http://www.w3.org/2000/svg">
<g clip-path="url(#clip0_60_1108)">
<path d="M10.0063 31.9995C7.59263 31.998 5.26098 31.1235 3.44158 29.5375C1.62218 27.9514 0.437826 25.7608 0.107062 23.3699C-0.223703 20.979 0.321446 18.5492 1.64191 16.5287C2.96238 14.5083 4.96905 13.0336 7.29163 12.3769C8.9798 11.8934 10.7667 11.8713 12.4663 12.3129L23.0103 1.77154C23.57 1.20791 24.2361 0.76105 24.9699 0.456865C25.7037 0.152681 26.4906 -0.00276802 27.2849 -0.000463018V-0.000463018C28.535 0.000596224 29.7336 0.497659 30.6175 1.3816C31.5015 2.26554 31.9985 3.46412 31.9996 4.7142C32.0017 5.50859 31.8462 6.29551 31.5423 7.02946C31.2384 7.76341 30.792 8.42983 30.2289 8.9902L29.3329 9.8862C28.8316 10.3841 28.1542 10.6644 27.4476 10.6662H25.3329V11.9995C25.3329 12.7068 25.052 13.3851 24.5519 13.8852C24.0518 14.3853 23.3735 14.6662 22.6663 14.6662H21.3329V16.7809C21.3339 17.1312 21.2653 17.4782 21.1312 17.8018C20.9971 18.1255 20.8001 18.4193 20.5516 18.6662L19.685 19.5329C20.1289 21.2317 20.1073 23.0187 19.6223 24.7062C19.0766 26.6289 17.9694 28.3449 16.4425 29.6345C14.9156 30.9241 13.0385 31.7285 11.0516 31.9449C10.7043 31.981 10.3554 31.9992 10.0063 31.9995V31.9995ZM10.0063 14.6662C8.64117 14.6649 7.30276 15.0446 6.14175 15.7627C4.98074 16.4808 4.04322 17.5087 3.43471 18.7307C2.8262 19.9527 2.57088 21.3203 2.69747 22.6796C2.82407 24.0388 3.32756 25.3358 4.15126 26.4244C4.97497 27.513 6.08619 28.3501 7.35984 28.8414C8.63349 29.3328 10.019 29.4588 11.3604 29.2054C12.7018 28.952 13.9459 28.3292 14.9525 27.4071C15.9592 26.4851 16.6885 25.3003 17.0583 23.9862C17.4743 22.5416 17.4277 21.003 16.925 19.5862C16.8429 19.3496 16.8292 19.0947 16.8853 18.8506C16.9414 18.6065 17.0651 18.3832 17.2423 18.2062L18.6663 16.7809V14.6662C18.6663 13.959 18.9472 13.2807 19.4473 12.7806C19.9474 12.2805 20.6257 11.9995 21.3329 11.9995H22.6663V10.6662C22.6663 9.95896 22.9472 9.28068 23.4473 8.78059C23.9474 8.28049 24.6257 7.99954 25.3329 7.99954H27.4476L28.3436 7.10354C28.6582 6.79041 28.9076 6.41802 29.0775 6.00791C29.2473 5.59779 29.3341 5.15808 29.3329 4.7142C29.3326 4.17138 29.1169 3.65087 28.7332 3.26691C28.3495 2.88295 27.8291 2.66691 27.2863 2.6662C26.8421 2.66511 26.4021 2.75211 25.9917 2.92215C25.5814 3.0922 25.2088 3.34192 24.8956 3.65687L13.7876 14.7635C13.6104 14.9407 13.3867 15.0643 13.1424 15.1202C12.8981 15.1761 12.643 15.162 12.4063 15.0795C11.6331 14.8073 10.8194 14.6675 9.99963 14.6662H10.0063ZM6.6663 23.9995C6.6663 24.2632 6.7445 24.521 6.89101 24.7403C7.03752 24.9596 7.24576 25.1305 7.48939 25.2314C7.73302 25.3323 8.00111 25.3587 8.25975 25.3072C8.51839 25.2558 8.75597 25.1288 8.94244 24.9423C9.12891 24.7559 9.2559 24.5183 9.30735 24.2597C9.35879 24.001 9.33239 23.7329 9.23147 23.4893C9.13055 23.2457 8.95966 23.0374 8.74039 22.8909C8.52113 22.7444 8.26334 22.6662 7.99963 22.6662C7.64601 22.6662 7.30687 22.8067 7.05683 23.0567C6.80678 23.3068 6.6663 23.6459 6.6663 23.9995Z" fill="#234E9B"/>
</g>
<defs>
<clipPath id="clip0_60_1108">
<rect width="32" height="32" fill="white"/>
</clipPath>
</defs>
</svg>
