<svg width="32" height="32" viewBox="0 0 32 32" fill="none" xmlns="http://www.w3.org/2000/svg">
<g clip-path="url(#clip0_60_1500)">
<path d="M9.86691 7.40359C9.74389 7.19694 9.56928 7.02579 9.3602 6.90693C9.15112 6.78808 8.91474 6.72559 8.67424 6.72559C8.43374 6.72559 8.19737 6.78808 7.98829 6.90693C7.77921 7.02579 7.6046 7.19694 7.48158 7.40359L0.148242 22.0703C0.0683563 22.2271 0.0202976 22.3981 0.00683658 22.5736C-0.00662442 22.749 0.0147786 22.9254 0.0698117 23.0925C0.124845 23.2597 0.212419 23.4143 0.327486 23.5474C0.442552 23.6806 0.582835 23.7896 0.740245 23.8683C0.897655 23.9469 1.06908 23.9936 1.24463 24.0057C1.42019 24.0178 1.5964 23.9951 1.76311 23.9387C1.92982 23.8824 2.08373 23.7936 2.21596 23.6775C2.3482 23.5614 2.45614 23.4203 2.53358 23.2623L4.82558 18.6663H12.5109L14.8096 23.2623C14.887 23.4203 14.995 23.5614 15.1272 23.6775C15.2594 23.7936 15.4133 23.8824 15.58 23.9387C15.7468 23.9951 15.923 24.0178 16.0985 24.0057C16.2741 23.9936 16.4455 23.9469 16.6029 23.8683C16.7603 23.7896 16.9006 23.6806 17.0157 23.5474C17.1307 23.4143 17.2183 23.2597 17.2733 23.0925C17.3284 22.9254 17.3498 22.749 17.3363 22.5736C17.3229 22.3981 17.2748 22.2271 17.1949 22.0703L9.86691 7.40359ZM6.15891 15.9996L8.66691 10.9809L11.1776 15.9996H6.15891Z" fill="#234E9B"/>
<path d="M30.667 10.6663C30.3133 10.6663 29.9742 10.8067 29.7242 11.0568C29.4741 11.3068 29.3336 11.646 29.3336 11.9996V12.0343C28.1864 11.1519 26.7809 10.6712 25.3336 10.6663C23.5655 10.6663 21.8698 11.3686 20.6196 12.6189C19.3694 13.8691 18.667 15.5648 18.667 17.3329C18.667 19.101 19.3694 20.7967 20.6196 22.047C21.8698 23.2972 23.5655 23.9996 25.3336 23.9996C26.7809 23.9947 28.1864 23.514 29.3336 22.6316V22.6663C29.3336 23.0199 29.4741 23.359 29.7242 23.6091C29.9742 23.8591 30.3133 23.9996 30.667 23.9996C31.0206 23.9996 31.3597 23.8591 31.6098 23.6091C31.8598 23.359 32.0003 23.0199 32.0003 22.6663V11.9996C32.0003 11.646 31.8598 11.3068 31.6098 11.0568C31.3597 10.8067 31.0206 10.6663 30.667 10.6663ZM25.3336 21.3329C24.5425 21.3329 23.7692 21.0983 23.1114 20.6588C22.4536 20.2193 21.9409 19.5946 21.6381 18.8637C21.3354 18.1328 21.2562 17.3285 21.4105 16.5526C21.5649 15.7766 21.9458 15.0639 22.5052 14.5045C23.0646 13.9451 23.7774 13.5641 24.5533 13.4098C25.3292 13.2554 26.1335 13.3347 26.8644 13.6374C27.5953 13.9402 28.22 14.4528 28.6595 15.1106C29.099 15.7684 29.3336 16.5418 29.3336 17.3329C29.3336 18.3938 28.9122 19.4112 28.1621 20.1614C27.4119 20.9115 26.3945 21.3329 25.3336 21.3329Z" fill="#234E9B"/>
</g>
<defs>
<clipPath id="clip0_60_1500">
<rect width="32" height="32" fill="white"/>
</clipPath>
</defs>
</svg>
