<svg width="32" height="32" viewBox="0 0 32 32" fill="none" xmlns="http://www.w3.org/2000/svg">
<path d="M25.3337 11.232V9.33333C25.3337 6.85798 24.3503 4.48401 22.6 2.73367C20.8496 0.983331 18.4757 0 16.0003 0C13.525 0 11.151 0.983331 9.40066 2.73367C7.65032 4.48401 6.66699 6.85798 6.66699 9.33333V11.232C5.47947 11.7503 4.46872 12.6034 3.75832 13.6869C3.04793 14.7705 2.6687 16.0376 2.66699 17.3333V25.3333C2.66911 27.1008 3.37217 28.7953 4.62195 30.045C5.87174 31.2948 7.5662 31.9979 9.33366 32H22.667C24.4345 31.9979 26.1289 31.2948 27.3787 30.045C28.6285 28.7953 29.3315 27.1008 29.3337 25.3333V17.3333C29.332 16.0376 28.9527 14.7705 28.2423 13.6869C27.5319 12.6034 26.5212 11.7503 25.3337 11.232V11.232ZM9.33366 9.33333C9.33366 7.56522 10.036 5.86953 11.2863 4.61929C12.5365 3.36905 14.2322 2.66667 16.0003 2.66667C17.7684 2.66667 19.4641 3.36905 20.7144 4.61929C21.9646 5.86953 22.667 7.56522 22.667 9.33333V10.6667H9.33366V9.33333ZM26.667 25.3333C26.667 26.3942 26.2456 27.4116 25.4954 28.1618C24.7453 28.9119 23.7279 29.3333 22.667 29.3333H9.33366C8.27279 29.3333 7.25538 28.9119 6.50523 28.1618C5.75509 27.4116 5.33366 26.3942 5.33366 25.3333V17.3333C5.33366 16.2725 5.75509 15.2551 6.50523 14.5049C7.25538 13.7548 8.27279 13.3333 9.33366 13.3333H22.667C23.7279 13.3333 24.7453 13.7548 25.4954 14.5049C26.2456 15.2551 26.667 16.2725 26.667 17.3333V25.3333Z" fill="#234E9B"/>
<path d="M16.0003 18.6663C15.6467 18.6663 15.3076 18.8067 15.0575 19.0568C14.8075 19.3068 14.667 19.646 14.667 19.9996V22.6663C14.667 23.0199 14.8075 23.359 15.0575 23.6091C15.3076 23.8591 15.6467 23.9996 16.0003 23.9996C16.354 23.9996 16.6931 23.8591 16.9431 23.6091C17.1932 23.359 17.3337 23.0199 17.3337 22.6663V19.9996C17.3337 19.646 17.1932 19.3068 16.9431 19.0568C16.6931 18.8067 16.354 18.6663 16.0003 18.6663Z" fill="#234E9B"/>
</svg>
