<svg width="26" height="27" viewBox="0 0 26 27" fill="none" xmlns="http://www.w3.org/2000/svg">
<g clip-path="url(#clip0_60_1209)">
<path d="M24.7574 1.44357C24.0209 0.708198 23.0227 0.295166 21.9819 0.295166C20.9412 0.295166 19.9429 0.708198 19.2064 1.44357L1.5871 19.0629C1.08254 19.5646 0.682475 20.1614 0.410056 20.8188C0.137636 21.4761 -0.00173114 22.1809 1.62297e-05 22.8925V25.1166C1.62297e-05 25.4039 0.114153 25.6794 0.317317 25.8826C0.520482 26.0858 0.796032 26.1999 1.08335 26.1999H3.30743C4.01893 26.2019 4.72375 26.0628 5.3811 25.7905C6.03845 25.5183 6.63528 25.1184 7.13702 24.6139L24.7574 6.99348C25.4925 6.25703 25.9053 5.25903 25.9053 4.21853C25.9053 3.17802 25.4925 2.18002 24.7574 1.44357V1.44357ZM5.60518 23.0821C4.99419 23.689 4.16864 24.0307 3.30743 24.0332H2.16668V22.8925C2.16559 22.4655 2.24919 22.0426 2.41264 21.6482C2.57609 21.2538 2.81616 20.8957 3.11893 20.5947L16.4905 7.22315L18.9822 9.71482L5.60518 23.0821ZM23.2245 5.46165L20.5097 8.17757L18.018 5.69132L20.7339 2.9754C20.8975 2.81215 21.0917 2.68272 21.3053 2.59451C21.5189 2.5063 21.7479 2.46102 21.979 2.46128C22.2101 2.46153 22.4389 2.5073 22.6523 2.59598C22.8658 2.68466 23.0596 2.8145 23.2229 2.97811C23.3861 3.14171 23.5156 3.33587 23.6038 3.5495C23.692 3.76312 23.7373 3.99203 23.737 4.22315C23.7368 4.45427 23.691 4.68308 23.6023 4.89651C23.5136 5.10994 23.3838 5.30382 23.2202 5.46707L23.2245 5.46165Z" fill="white"/>
</g>
<defs>
<clipPath id="clip0_60_1209">
<rect width="26" height="26" fill="white" transform="translate(0 0.199951)"/>
</clipPath>
</defs>
</svg>
