<svg width="26" height="27" viewBox="0 0 26 27" fill="none" xmlns="http://www.w3.org/2000/svg">
<g clip-path="url(#clip0_171_2826)">
<path d="M22.7503 4.53353H19.392C19.1406 3.31089 18.4753 2.21232 17.5083 1.42297C16.5414 0.633626 15.3319 0.201771 14.0837 0.200195L11.917 0.200195C10.6688 0.201771 9.45925 0.633626 8.4923 1.42297C7.52535 2.21232 6.8601 3.31089 6.60866 4.53353H3.25033C2.96301 4.53353 2.68746 4.64767 2.48429 4.85083C2.28113 5.05399 2.16699 5.32954 2.16699 5.61686C2.16699 5.90418 2.28113 6.17973 2.48429 6.38289C2.68746 6.58606 2.96301 6.7002 3.25033 6.7002H4.33366V20.7835C4.33538 22.2196 4.90661 23.5963 5.92206 24.6118C6.93751 25.6272 8.31426 26.1985 9.75032 26.2002H16.2503C17.6864 26.1985 19.0631 25.6272 20.0786 24.6118C21.094 23.5963 21.6653 22.2196 21.667 20.7835V6.7002H22.7503C23.0376 6.7002 23.3132 6.58606 23.5164 6.38289C23.7195 6.17973 23.8337 5.90418 23.8337 5.61686C23.8337 5.32954 23.7195 5.05399 23.5164 4.85083C23.3132 4.64767 23.0376 4.53353 22.7503 4.53353V4.53353ZM11.917 2.36686H14.0837C14.7556 2.36768 15.4109 2.57635 15.9596 2.96426C16.5083 3.35217 16.9235 3.90031 17.1484 4.53353H8.85224C9.07712 3.90031 9.49238 3.35217 10.0411 2.96426C10.5898 2.57635 11.245 2.36768 11.917 2.36686V2.36686ZM19.5003 20.7835C19.5003 21.6455 19.1579 22.4721 18.5484 23.0816C17.9389 23.6911 17.1123 24.0335 16.2503 24.0335H9.75032C8.88837 24.0335 8.06172 23.6911 7.45223 23.0816C6.84274 22.4721 6.50033 21.6455 6.50033 20.7835V6.7002H19.5003V20.7835Z" fill="white"/>
<path d="M10.8333 19.6994C11.1206 19.6994 11.3962 19.5852 11.5994 19.3821C11.8025 19.1789 11.9167 18.9034 11.9167 18.616V12.116C11.9167 11.8287 11.8025 11.5532 11.5994 11.35C11.3962 11.1469 11.1206 11.0327 10.8333 11.0327C10.546 11.0327 10.2705 11.1469 10.0673 11.35C9.86414 11.5532 9.75 11.8287 9.75 12.116V18.616C9.75 18.9034 9.86414 19.1789 10.0673 19.3821C10.2705 19.5852 10.546 19.6994 10.8333 19.6994Z" fill="white"/>
<path d="M15.1663 19.6994C15.4537 19.6994 15.7292 19.5852 15.9324 19.3821C16.1355 19.1789 16.2497 18.9034 16.2497 18.616V12.116C16.2497 11.8287 16.1355 11.5532 15.9324 11.35C15.7292 11.1469 15.4537 11.0327 15.1663 11.0327C14.879 11.0327 14.6035 11.1469 14.4003 11.35C14.1971 11.5532 14.083 11.8287 14.083 12.116V18.616C14.083 18.9034 14.1971 19.1789 14.4003 19.3821C14.6035 19.5852 14.879 19.6994 15.1663 19.6994Z" fill="white"/>
</g>
<defs>
<clipPath id="clip0_171_2826">
<rect width="26" height="26" fill="white" transform="translate(0 0.200195)"/>
</clipPath>
</defs>
</svg>
