<svg width="32" height="32" viewBox="0 0 32 32" fill="none" xmlns="http://www.w3.org/2000/svg">
<g clip-path="url(#clip0_60_1213)">
<path d="M29.2955 10.998C28.693 10.3936 27.9766 9.91457 27.1878 9.58878C26.399 9.26299 25.5534 9.09687 24.7 9.10003V9.10003H3.63996L9.22996 3.51003C9.47337 3.26558 9.60971 2.93445 9.60898 2.58947C9.60825 2.2445 9.47051 1.91395 9.22606 1.67053C8.98161 1.42711 8.65047 1.29078 8.3055 1.29151C7.96053 1.29224 7.62997 1.42998 7.38656 1.67443L0.951556 8.10813C0.342275 8.7176 0 9.5441 0 10.4059C0 11.2677 0.342275 12.0942 0.951556 12.7036L7.38656 19.1399C7.50725 19.261 7.65061 19.3571 7.80844 19.4227C7.96627 19.4883 8.13548 19.5222 8.30642 19.5225C8.47735 19.5227 8.64666 19.4893 8.80467 19.4241C8.96269 19.3589 9.10632 19.2632 9.22736 19.1425C9.3484 19.0218 9.44448 18.8785 9.51011 18.7206C9.57575 18.5628 9.60966 18.3936 9.6099 18.2227C9.61014 18.0517 9.57671 17.8824 9.51152 17.7244C9.44633 17.5664 9.35065 17.4228 9.22996 17.3017L3.62436 11.7H24.7C25.7343 11.7 26.7263 12.1109 27.4577 12.8423C28.1891 13.5737 28.6 14.5657 28.6 15.6V24.7C28.6 25.7344 28.1891 26.7264 27.4577 27.4577C26.7263 28.1891 25.7343 28.6 24.7 28.6H6.49996C6.15517 28.6 5.82452 28.737 5.58072 28.9808C5.33692 29.2246 5.19996 29.5552 5.19996 29.9C5.19996 30.2448 5.33692 30.5755 5.58072 30.8193C5.82452 31.0631 6.15517 31.2 6.49996 31.2H24.7C26.4232 31.198 28.0753 30.5125 29.2939 29.2939C30.5124 28.0754 31.1979 26.4233 31.2 24.7V15.6C31.2028 14.7451 31.036 13.8981 30.7091 13.1081C30.3821 12.3181 29.9017 11.6009 29.2955 10.998Z" fill="white"/>
</g>
<defs>
<clipPath id="clip0_60_1213">
<rect width="31.2" height="31.2" fill="white"/>
</clipPath>
</defs>
</svg>
