<svg width="865" height="515" viewBox="0 0 865 515" fill="none" xmlns="http://www.w3.org/2000/svg">
<g clip-path="url(#clip0_171_2730)">
<path d="M30 437.301H25.8854C25.6217 437.301 25.364 437.38 25.1448 437.526C24.9255 437.673 24.7547 437.881 24.6538 438.124C24.5529 438.368 24.5265 438.636 24.5779 438.895C24.6294 439.153 24.7563 439.391 24.9427 439.577L26.3907 441.025L21.6094 445.805C21.3553 446.048 21.0174 446.184 20.666 446.184C20.3146 446.184 19.9768 446.048 19.7227 445.805L19.496 445.577C18.7342 444.849 17.7211 444.443 16.6674 444.443C15.6137 444.443 14.6006 444.849 13.8387 445.577L7.03871 452.377C6.78817 452.629 6.64769 452.969 6.64819 453.324C6.64869 453.679 6.79013 454.019 7.04137 454.269C7.29262 454.52 7.63311 454.66 7.98793 454.66C8.34275 454.659 8.68283 454.518 8.93337 454.267L15.7334 447.467C15.9873 447.224 16.3252 447.088 16.6767 447.088C17.0282 447.088 17.3662 447.224 17.62 447.467L17.8467 447.695C18.6089 448.422 19.6219 448.828 20.6754 448.828C21.7289 448.828 22.7419 448.422 23.504 447.695L28.2854 442.913L29.7334 444.361C29.9205 444.545 30.1575 444.669 30.4147 444.718C30.672 444.768 30.9382 444.741 31.18 444.64C31.4218 444.539 31.6285 444.369 31.7743 444.151C31.9202 443.934 31.9987 443.678 32 443.416V439.301C32 438.771 31.7893 438.262 31.4143 437.887C31.0392 437.512 30.5305 437.301 30 437.301Z" fill="#234E9B"/>
<path d="M30.6669 461.301H6.66691C5.60605 461.301 4.58863 460.88 3.83848 460.13C3.08834 459.38 2.66691 458.362 2.66691 457.301V433.333C2.66691 432.98 2.52644 432.641 2.27639 432.391C2.02634 432.14 1.6872 432 1.33358 432C0.979955 432 0.640817 432.14 0.390768 432.391C0.14072 432.641 0.000244141 432.98 0.000244141 433.333L0.000244141 457.301C0.00236128 459.069 0.70542 460.763 1.9552 462.013C3.20499 463.263 4.89945 463.966 6.66691 463.968H30.6669C31.0205 463.968 31.3597 463.828 31.6097 463.577C31.8598 463.327 32.0002 462.988 32.0002 462.635C32.0002 462.281 31.8598 461.942 31.6097 461.692C31.3597 461.442 31.0205 461.301 30.6669 461.301Z" fill="#234E9B"/>
</g>
<path d="M49.2542 457L43.5002 441.836H43.4065C43.4377 442.156 43.4651 442.547 43.4885 443.008C43.512 443.469 43.5315 443.973 43.5471 444.52C43.5627 445.059 43.5706 445.609 43.5706 446.172V457H41.719V439.867H44.6721L50.0979 454.117H50.1799L55.6877 439.867H58.6174V457H56.6487V446.031C56.6487 445.523 56.6565 445.016 56.6721 444.508C56.6877 443.992 56.7073 443.508 56.7307 443.055C56.7542 442.594 56.7776 442.195 56.801 441.859H56.7073L50.8831 457H49.2542ZM67.8167 443.945C69.3479 443.945 70.4846 444.289 71.2268 444.977C71.969 445.664 72.3401 446.762 72.3401 448.27V457H70.9221L70.5471 455.102H70.4534C70.094 455.57 69.719 455.965 69.3284 456.285C68.9377 456.598 68.4846 456.836 67.969 457C67.4612 457.156 66.8362 457.234 66.094 457.234C65.3127 457.234 64.6174 457.098 64.0081 456.824C63.4065 456.551 62.9299 456.137 62.5784 455.582C62.2346 455.027 62.0627 454.324 62.0627 453.473C62.0627 452.191 62.5706 451.207 63.5862 450.52C64.6018 449.832 66.1487 449.457 68.2268 449.395L70.4417 449.301V448.516C70.4417 447.406 70.2034 446.629 69.7268 446.184C69.2502 445.738 68.5784 445.516 67.7112 445.516C67.0393 445.516 66.3987 445.613 65.7893 445.809C65.1799 446.004 64.6018 446.234 64.0549 446.5L63.4573 445.023C64.0354 444.727 64.6995 444.473 65.4495 444.262C66.1995 444.051 66.9885 443.945 67.8167 443.945ZM70.4182 450.672L68.4612 450.754C66.8596 450.816 65.7307 451.078 65.0745 451.539C64.4182 452 64.0901 452.652 64.0901 453.496C64.0901 454.23 64.3127 454.773 64.7581 455.125C65.2034 455.477 65.7932 455.652 66.5276 455.652C67.6682 455.652 68.6018 455.336 69.3284 454.703C70.0549 454.07 70.4182 453.121 70.4182 451.855V450.672ZM83.8362 444.156H85.9807L80.4377 450.355L86.426 457H84.1409L78.3049 450.484V457H76.3479V444.156H78.3049V450.391L83.8362 444.156ZM93.8909 457.234C92.7346 457.234 91.7151 456.996 90.8323 456.52C89.9495 456.043 89.262 455.316 88.7698 454.34C88.2776 453.363 88.0315 452.133 88.0315 450.648C88.0315 449.094 88.2893 447.824 88.8049 446.84C89.3284 445.848 90.0471 445.113 90.9612 444.637C91.8752 444.16 92.9143 443.922 94.0784 443.922C94.719 443.922 95.3362 443.988 95.9299 444.121C96.5315 444.246 97.0237 444.406 97.4065 444.602L96.8206 446.23C96.4299 446.074 95.9768 445.934 95.4612 445.809C94.9534 445.684 94.4768 445.621 94.0315 445.621C93.1409 445.621 92.3987 445.812 91.8049 446.195C91.219 446.578 90.7776 447.141 90.4807 447.883C90.1917 448.625 90.0471 449.539 90.0471 450.625C90.0471 451.664 90.1877 452.551 90.469 453.285C90.7581 454.02 91.1838 454.582 91.7463 454.973C92.3167 455.355 93.0276 455.547 93.8792 455.547C94.5588 455.547 95.1721 455.477 95.719 455.336C96.2659 455.188 96.762 455.016 97.2073 454.82V456.555C96.7776 456.773 96.2971 456.941 95.7659 457.059C95.2424 457.176 94.6174 457.234 93.8909 457.234ZM116.696 447.379C116.696 448.184 116.461 448.812 115.992 449.266C115.524 449.711 114.918 450.012 114.176 450.168V450.262C114.981 450.371 115.672 450.66 116.25 451.129C116.836 451.59 117.129 452.297 117.129 453.25C117.129 453.984 116.953 454.633 116.602 455.195C116.25 455.758 115.699 456.199 114.949 456.52C114.199 456.84 113.223 457 112.02 457H106.489V444.156H111.973C112.895 444.156 113.707 444.262 114.41 444.473C115.121 444.676 115.68 445.012 116.086 445.48C116.492 445.949 116.696 446.582 116.696 447.379ZM115.102 453.25C115.102 452.492 114.813 451.945 114.235 451.609C113.664 451.273 112.832 451.105 111.739 451.105H108.446V455.418H111.785C112.864 455.418 113.684 455.254 114.246 454.926C114.817 454.59 115.102 454.031 115.102 453.25ZM114.715 447.602C114.715 446.992 114.492 446.539 114.047 446.242C113.602 445.938 112.871 445.785 111.856 445.785H108.446V449.477H111.516C112.571 449.477 113.367 449.324 113.906 449.02C114.446 448.715 114.715 448.242 114.715 447.602ZM120.27 457V444.156H122.227V449.453H125.742C126.836 449.453 127.735 449.59 128.438 449.863C129.149 450.137 129.676 450.543 130.02 451.082C130.364 451.621 130.535 452.289 130.535 453.086C130.535 453.883 130.364 454.574 130.02 455.16C129.684 455.746 129.153 456.199 128.426 456.52C127.707 456.84 126.77 457 125.614 457H120.27ZM122.227 455.418H125.426C126.395 455.418 127.168 455.246 127.746 454.902C128.324 454.559 128.614 453.984 128.614 453.18C128.614 452.391 128.344 451.844 127.805 451.539C127.266 451.227 126.492 451.07 125.485 451.07H122.227V455.418ZM132.656 457V444.156H134.602V457H132.656ZM144.75 443.922C146.352 443.922 147.629 444.473 148.582 445.574C149.535 446.676 150.012 448.332 150.012 450.543C150.012 452.004 149.793 453.23 149.356 454.223C148.918 455.215 148.301 455.965 147.504 456.473C146.715 456.98 145.781 457.234 144.703 457.234C144.024 457.234 143.426 457.145 142.91 456.965C142.395 456.785 141.953 456.543 141.586 456.238C141.219 455.934 140.914 455.602 140.672 455.242H140.531C140.555 455.547 140.582 455.914 140.614 456.344C140.653 456.773 140.672 457.148 140.672 457.469V462.742H138.715V444.156H140.321L140.578 446.055H140.672C140.922 445.664 141.227 445.309 141.586 444.988C141.946 444.66 142.383 444.402 142.899 444.215C143.422 444.02 144.039 443.922 144.75 443.922ZM144.41 445.562C143.52 445.562 142.801 445.734 142.254 446.078C141.715 446.422 141.321 446.938 141.071 447.625C140.821 448.305 140.688 449.16 140.672 450.191V450.566C140.672 451.652 140.789 452.57 141.024 453.32C141.266 454.07 141.66 454.641 142.207 455.031C142.762 455.422 143.504 455.617 144.434 455.617C145.231 455.617 145.895 455.402 146.426 454.973C146.957 454.543 147.352 453.945 147.61 453.18C147.875 452.406 148.008 451.52 148.008 450.52C148.008 449.004 147.711 447.801 147.117 446.91C146.531 446.012 145.629 445.562 144.41 445.562ZM151.383 444.156H153.469L156.305 451.609C156.469 452.047 156.621 452.469 156.762 452.875C156.903 453.273 157.028 453.656 157.137 454.023C157.246 454.391 157.332 454.746 157.395 455.09H157.477C157.586 454.699 157.742 454.188 157.946 453.555C158.149 452.914 158.367 452.262 158.602 451.598L161.285 444.156H163.383L157.793 458.887C157.496 459.676 157.149 460.363 156.75 460.949C156.36 461.535 155.883 461.984 155.321 462.297C154.758 462.617 154.078 462.777 153.281 462.777C152.914 462.777 152.59 462.754 152.309 462.707C152.028 462.668 151.785 462.621 151.582 462.566V461.008C151.754 461.047 151.961 461.082 152.203 461.113C152.453 461.145 152.711 461.16 152.977 461.16C153.461 461.16 153.879 461.066 154.231 460.879C154.59 460.699 154.899 460.434 155.156 460.082C155.414 459.73 155.637 459.312 155.824 458.828L156.528 457.023L151.383 444.156ZM167.133 444.156V448.773C167.133 449.578 167.352 450.172 167.789 450.555C168.235 450.938 168.879 451.129 169.723 451.129C170.535 451.129 171.274 451.004 171.938 450.754C172.602 450.504 173.274 450.164 173.953 449.734V444.156H175.899V457H173.953V451.246C173.235 451.707 172.528 452.07 171.832 452.336C171.137 452.602 170.305 452.734 169.336 452.734C168.016 452.734 166.992 452.391 166.266 451.703C165.547 451.016 165.188 450.086 165.188 448.914V444.156H167.133ZM187.5 444.156H189.645L184.102 450.355L190.09 457H187.805L181.969 450.484V457H180.012V444.156H181.969V450.391L187.5 444.156ZM197.215 443.945C198.746 443.945 199.883 444.289 200.625 444.977C201.367 445.664 201.739 446.762 201.739 448.27V457H200.321L199.946 455.102H199.852C199.492 455.57 199.117 455.965 198.727 456.285C198.336 456.598 197.883 456.836 197.367 457C196.86 457.156 196.235 457.234 195.492 457.234C194.711 457.234 194.016 457.098 193.406 456.824C192.805 456.551 192.328 456.137 191.977 455.582C191.633 455.027 191.461 454.324 191.461 453.473C191.461 452.191 191.969 451.207 192.985 450.52C194 449.832 195.547 449.457 197.625 449.395L199.84 449.301V448.516C199.84 447.406 199.602 446.629 199.125 446.184C198.649 445.738 197.977 445.516 197.11 445.516C196.438 445.516 195.797 445.613 195.188 445.809C194.578 446.004 194 446.234 193.453 446.5L192.856 445.023C193.434 444.727 194.098 444.473 194.848 444.262C195.598 444.051 196.387 443.945 197.215 443.945ZM199.817 450.672L197.86 450.754C196.258 450.816 195.129 451.078 194.473 451.539C193.817 452 193.489 452.652 193.489 453.496C193.489 454.23 193.711 454.773 194.156 455.125C194.602 455.477 195.192 455.652 195.926 455.652C197.067 455.652 198 455.336 198.727 454.703C199.453 454.07 199.817 453.121 199.817 451.855V450.672ZM205.453 455.781C205.453 455.234 205.586 454.848 205.852 454.621C206.117 454.387 206.442 454.27 206.824 454.27C207.223 454.27 207.559 454.387 207.832 454.621C208.106 454.848 208.242 455.234 208.242 455.781C208.242 456.32 208.106 456.715 207.832 456.965C207.559 457.207 207.223 457.328 206.824 457.328C206.442 457.328 206.117 457.207 205.852 456.965C205.586 456.715 205.453 456.32 205.453 455.781ZM205.453 445.387C205.453 444.824 205.586 444.43 205.852 444.203C206.117 443.969 206.442 443.852 206.824 443.852C207.223 443.852 207.559 443.969 207.832 444.203C208.106 444.43 208.242 444.824 208.242 445.387C208.242 445.918 208.106 446.305 207.832 446.547C207.559 446.789 207.223 446.91 206.824 446.91C206.442 446.91 206.117 446.789 205.852 446.547C205.586 446.305 205.453 445.918 205.453 445.387Z" fill="#2E4555"/>
<path d="M254.867 453.027H252.301V457H250.403V453.027H242.117V451.387L250.274 439.773H252.301V451.27H254.867V453.027ZM250.403 451.27V445.668C250.403 445.238 250.406 444.852 250.414 444.508C250.422 444.156 250.434 443.832 250.449 443.535C250.465 443.23 250.477 442.941 250.485 442.668C250.5 442.395 250.512 442.125 250.52 441.859H250.426C250.278 442.172 250.106 442.504 249.91 442.855C249.723 443.199 249.531 443.508 249.336 443.781L244.051 451.27H250.403ZM268.168 446.523C269.332 446.523 270.344 446.723 271.203 447.121C272.063 447.512 272.727 448.082 273.196 448.832C273.672 449.582 273.91 450.492 273.91 451.562C273.91 452.734 273.656 453.746 273.149 454.598C272.641 455.441 271.91 456.094 270.957 456.555C270.004 457.008 268.864 457.234 267.535 457.234C266.645 457.234 265.817 457.156 265.051 457C264.285 456.844 263.641 456.609 263.117 456.297V454.445C263.688 454.789 264.379 455.062 265.192 455.266C266.004 455.469 266.793 455.57 267.559 455.57C268.426 455.57 269.184 455.434 269.832 455.16C270.489 454.879 270.996 454.457 271.356 453.895C271.723 453.324 271.906 452.609 271.906 451.75C271.906 450.609 271.555 449.73 270.852 449.113C270.156 448.488 269.055 448.176 267.547 448.176C267.063 448.176 266.531 448.215 265.953 448.293C265.375 448.371 264.899 448.457 264.524 448.551L263.539 447.906L264.196 439.867H272.715V441.648H265.86L265.426 446.816C265.723 446.754 266.106 446.691 266.574 446.629C267.043 446.559 267.574 446.523 268.168 446.523ZM287.809 448.41C287.809 449.801 287.703 451.043 287.492 452.137C287.281 453.23 286.949 454.156 286.496 454.914C286.043 455.672 285.457 456.25 284.739 456.648C284.02 457.039 283.156 457.234 282.149 457.234C280.875 457.234 279.821 456.887 278.985 456.191C278.156 455.496 277.535 454.492 277.121 453.18C276.715 451.859 276.512 450.27 276.512 448.41C276.512 446.582 276.696 445.012 277.063 443.699C277.438 442.379 278.039 441.367 278.867 440.664C279.696 439.953 280.789 439.598 282.149 439.598C283.438 439.598 284.5 439.949 285.336 440.652C286.172 441.348 286.793 442.355 287.199 443.676C287.606 444.988 287.809 446.566 287.809 448.41ZM278.469 448.41C278.469 450.004 278.59 451.332 278.832 452.395C279.074 453.457 279.465 454.254 280.004 454.785C280.551 455.309 281.266 455.57 282.149 455.57C283.031 455.57 283.742 455.309 284.281 454.785C284.828 454.262 285.223 453.469 285.465 452.406C285.715 451.344 285.84 450.012 285.84 448.41C285.84 446.84 285.719 445.527 285.477 444.473C285.235 443.41 284.844 442.613 284.305 442.082C283.766 441.543 283.047 441.273 282.149 441.273C281.25 441.273 280.531 441.543 279.992 442.082C279.453 442.613 279.063 443.41 278.821 444.473C278.586 445.527 278.469 446.84 278.469 448.41ZM301.543 448.41C301.543 449.801 301.438 451.043 301.227 452.137C301.016 453.23 300.684 454.156 300.231 454.914C299.778 455.672 299.192 456.25 298.473 456.648C297.754 457.039 296.891 457.234 295.883 457.234C294.61 457.234 293.555 456.887 292.719 456.191C291.891 455.496 291.27 454.492 290.856 453.18C290.449 451.859 290.246 450.27 290.246 448.41C290.246 446.582 290.43 445.012 290.797 443.699C291.172 442.379 291.774 441.367 292.602 440.664C293.43 439.953 294.524 439.598 295.883 439.598C297.172 439.598 298.235 439.949 299.071 440.652C299.906 441.348 300.528 442.355 300.934 443.676C301.34 444.988 301.543 446.566 301.543 448.41ZM292.203 448.41C292.203 450.004 292.324 451.332 292.567 452.395C292.809 453.457 293.199 454.254 293.739 454.785C294.285 455.309 295 455.57 295.883 455.57C296.766 455.57 297.477 455.309 298.016 454.785C298.563 454.262 298.957 453.469 299.199 452.406C299.449 451.344 299.574 450.012 299.574 448.41C299.574 446.84 299.453 445.527 299.211 444.473C298.969 443.41 298.578 442.613 298.039 442.082C297.5 441.543 296.781 441.273 295.883 441.273C294.985 441.273 294.266 441.543 293.727 442.082C293.188 442.613 292.797 443.41 292.555 444.473C292.321 445.527 292.203 446.84 292.203 448.41ZM317.094 443.922C318.696 443.922 319.973 444.473 320.926 445.574C321.879 446.676 322.356 448.332 322.356 450.543C322.356 452.004 322.137 453.23 321.699 454.223C321.262 455.215 320.645 455.965 319.848 456.473C319.059 456.98 318.125 457.234 317.047 457.234C316.367 457.234 315.77 457.145 315.254 456.965C314.739 456.785 314.297 456.543 313.93 456.238C313.563 455.934 313.258 455.602 313.016 455.242H312.875C312.899 455.547 312.926 455.914 312.957 456.344C312.996 456.773 313.016 457.148 313.016 457.469V462.742H311.059V444.156H312.664L312.922 446.055H313.016C313.266 445.664 313.571 445.309 313.93 444.988C314.289 444.66 314.727 444.402 315.242 444.215C315.766 444.02 316.383 443.922 317.094 443.922ZM316.754 445.562C315.864 445.562 315.145 445.734 314.598 446.078C314.059 446.422 313.664 446.938 313.414 447.625C313.164 448.305 313.031 449.16 313.016 450.191V450.566C313.016 451.652 313.133 452.57 313.367 453.32C313.61 454.07 314.004 454.641 314.551 455.031C315.106 455.422 315.848 455.617 316.778 455.617C317.574 455.617 318.239 455.402 318.77 454.973C319.301 454.543 319.696 453.945 319.953 453.18C320.219 452.406 320.352 451.52 320.352 450.52C320.352 449.004 320.055 447.801 319.461 446.91C318.875 446.012 317.973 445.562 316.754 445.562ZM323.727 444.156H325.813L328.649 451.609C328.813 452.047 328.965 452.469 329.106 452.875C329.246 453.273 329.371 453.656 329.481 454.023C329.59 454.391 329.676 454.746 329.739 455.09H329.821C329.93 454.699 330.086 454.188 330.289 453.555C330.492 452.914 330.711 452.262 330.946 451.598L333.629 444.156H335.727L330.137 458.887C329.84 459.676 329.492 460.363 329.094 460.949C328.703 461.535 328.227 461.984 327.664 462.297C327.102 462.617 326.422 462.777 325.625 462.777C325.258 462.777 324.934 462.754 324.653 462.707C324.371 462.668 324.129 462.621 323.926 462.566V461.008C324.098 461.047 324.305 461.082 324.547 461.113C324.797 461.145 325.055 461.16 325.321 461.16C325.805 461.16 326.223 461.066 326.574 460.879C326.934 460.699 327.242 460.434 327.5 460.082C327.758 459.73 327.981 459.312 328.168 458.828L328.871 457.023L323.727 444.156ZM337.11 449.289C337.11 447.461 337.285 445.902 337.637 444.613C337.989 443.316 338.531 442.277 339.266 441.496C340.008 440.707 340.961 440.168 342.125 439.879C343.125 439.605 344.141 439.371 345.172 439.176C346.203 438.973 347.207 438.797 348.184 438.648L348.524 440.359C348.031 440.43 347.516 440.512 346.977 440.605C346.438 440.691 345.899 440.785 345.36 440.887C344.821 440.98 344.313 441.082 343.836 441.191C343.36 441.293 342.938 441.398 342.571 441.508C341.906 441.688 341.332 442 340.848 442.445C340.371 442.891 339.992 443.504 339.711 444.285C339.438 445.066 339.274 446.051 339.219 447.238H339.36C339.594 446.895 339.914 446.555 340.321 446.219C340.727 445.883 341.211 445.605 341.774 445.387C342.336 445.16 342.969 445.047 343.672 445.047C344.781 445.047 345.707 445.289 346.449 445.773C347.192 446.25 347.75 446.922 348.125 447.789C348.5 448.656 348.688 449.672 348.688 450.836C348.688 452.234 348.446 453.41 347.961 454.363C347.485 455.316 346.813 456.035 345.946 456.52C345.078 456.996 344.059 457.234 342.887 457.234C341.981 457.234 341.168 457.059 340.449 456.707C339.739 456.355 339.133 455.84 338.633 455.16C338.141 454.48 337.762 453.648 337.496 452.664C337.239 451.68 337.11 450.555 337.11 449.289ZM343.039 455.617C343.781 455.617 344.418 455.461 344.949 455.148C345.489 454.836 345.903 454.344 346.192 453.672C346.489 452.992 346.637 452.109 346.637 451.023C346.637 449.664 346.375 448.602 345.852 447.836C345.336 447.062 344.508 446.676 343.367 446.676C342.656 446.676 342.012 446.828 341.434 447.133C340.856 447.43 340.367 447.785 339.969 448.199C339.571 448.613 339.281 448.984 339.102 449.312C339.102 450.109 339.16 450.883 339.278 451.633C339.395 452.383 339.598 453.059 339.887 453.66C340.176 454.262 340.574 454.738 341.082 455.09C341.598 455.441 342.25 455.617 343.039 455.617Z" fill="#2E4555"/>
<g clip-path="url(#clip1_171_2730)">
<path d="M29.7246 496.933L28.2766 498.381L23.4966 493.6C22.7345 492.873 21.7218 492.468 20.6686 492.468C19.6154 492.468 18.6027 492.873 17.8406 493.6L17.6099 493.831C17.3561 494.073 17.0185 494.209 16.6673 494.209C16.3161 494.209 15.9784 494.073 15.7246 493.831L8.9606 487.059C8.8376 486.931 8.69047 486.83 8.5278 486.76C8.36513 486.69 8.19017 486.653 8.01313 486.652C7.83609 486.65 7.66052 486.684 7.49666 486.751C7.3328 486.818 7.18393 486.917 7.05874 487.042C6.93355 487.167 6.83454 487.316 6.7675 487.48C6.70046 487.644 6.66672 487.819 6.66826 487.997C6.6698 488.174 6.70658 488.349 6.77646 488.511C6.84634 488.674 6.94792 488.821 7.07526 488.944L13.8379 495.708C14.5999 496.435 15.6127 496.841 16.6659 496.841C17.7192 496.841 18.732 496.435 19.4939 495.708L19.7246 495.477C19.9784 495.235 20.3161 495.099 20.6673 495.099C21.0185 495.099 21.3561 495.235 21.6099 495.477L26.3913 500.267L24.9433 501.715C24.7569 501.901 24.6299 502.139 24.5785 502.397C24.5271 502.656 24.5535 502.924 24.6544 503.168C24.7553 503.411 24.9261 503.619 25.1453 503.766C25.3645 503.912 25.6223 503.991 25.8859 503.991H30.0006C30.531 503.991 31.0397 503.78 31.4148 503.405C31.7899 503.03 32.0006 502.521 32.0006 501.991V497.867C31.9987 497.604 31.9192 497.347 31.7719 497.13C31.6247 496.912 31.4164 496.742 31.1732 496.643C30.93 496.543 30.6627 496.517 30.4049 496.569C30.1472 496.621 29.9105 496.747 29.7246 496.933Z" fill="#E31E24"/>
<path d="M30.6669 509.301H6.66691C5.60605 509.301 4.58863 508.88 3.83848 508.13C3.08834 507.38 2.66691 506.362 2.66691 505.301V481.333C2.66691 480.98 2.52644 480.641 2.27639 480.391C2.02634 480.14 1.6872 480 1.33358 480C0.979955 480 0.640817 480.14 0.390768 480.391C0.14072 480.641 0.000244141 480.98 0.000244141 481.333L0.000244141 505.301C0.00236128 507.069 0.70542 508.763 1.9552 510.013C3.20499 511.263 4.89945 511.966 6.66691 511.968H30.6669C31.0205 511.968 31.3597 511.828 31.6097 511.577C31.8598 511.327 32.0002 510.988 32.0002 510.635C32.0002 510.281 31.8598 509.942 31.6097 509.692C31.3597 509.442 31.0205 509.301 30.6669 509.301Z" fill="#E31E24"/>
</g>
<path d="M49.051 505L43.2971 489.836H43.2034C43.2346 490.156 43.262 490.547 43.2854 491.008C43.3088 491.469 43.3284 491.973 43.344 492.52C43.3596 493.059 43.3674 493.609 43.3674 494.172V505H41.5159V487.867H44.469L49.8948 502.117H49.9768L55.4846 487.867H58.4143V505H56.4456V494.031C56.4456 493.523 56.4534 493.016 56.469 492.508C56.4846 491.992 56.5042 491.508 56.5276 491.055C56.551 490.594 56.5745 490.195 56.5979 489.859H56.5042L50.6799 505H49.051ZM64.6604 492.156V500.23C64.6604 500.387 64.6565 500.59 64.6487 500.84C64.6409 501.082 64.6292 501.344 64.6135 501.625C64.5979 501.898 64.5823 502.164 64.5667 502.422C64.5588 502.672 64.5471 502.879 64.5315 503.043L71.5393 492.156H73.9299V505H72.1135V497.125C72.1135 496.875 72.1174 496.555 72.1252 496.164C72.1331 495.773 72.1448 495.391 72.1604 495.016C72.176 494.633 72.1877 494.336 72.1956 494.125L65.2112 505H62.8088V492.156H64.6604ZM80.0237 492.156V497.547H87.1838V492.156H89.1292V505H87.1838V499.199H80.0237V505H78.0667V492.156H80.0237ZM109.696 495.379C109.696 496.184 109.461 496.812 108.992 497.266C108.524 497.711 107.918 498.012 107.176 498.168V498.262C107.981 498.371 108.672 498.66 109.25 499.129C109.836 499.59 110.129 500.297 110.129 501.25C110.129 501.984 109.953 502.633 109.602 503.195C109.25 503.758 108.699 504.199 107.949 504.52C107.199 504.84 106.223 505 105.02 505H99.4885V492.156H104.973C105.895 492.156 106.707 492.262 107.41 492.473C108.121 492.676 108.68 493.012 109.086 493.48C109.492 493.949 109.696 494.582 109.696 495.379ZM108.102 501.25C108.102 500.492 107.813 499.945 107.235 499.609C106.664 499.273 105.832 499.105 104.739 499.105H101.446V503.418H104.785C105.864 503.418 106.684 503.254 107.246 502.926C107.817 502.59 108.102 502.031 108.102 501.25ZM107.715 495.602C107.715 494.992 107.492 494.539 107.047 494.242C106.602 493.938 105.871 493.785 104.856 493.785H101.446V497.477H104.516C105.571 497.477 106.367 497.324 106.906 497.02C107.446 496.715 107.715 496.242 107.715 495.602ZM113.27 505V492.156H115.227V497.453H118.742C119.836 497.453 120.735 497.59 121.438 497.863C122.149 498.137 122.676 498.543 123.02 499.082C123.364 499.621 123.535 500.289 123.535 501.086C123.535 501.883 123.364 502.574 123.02 503.16C122.684 503.746 122.153 504.199 121.426 504.52C120.707 504.84 119.77 505 118.614 505H113.27ZM115.227 503.418H118.426C119.395 503.418 120.168 503.246 120.746 502.902C121.324 502.559 121.614 501.984 121.614 501.18C121.614 500.391 121.344 499.844 120.805 499.539C120.266 499.227 119.492 499.07 118.485 499.07H115.227V503.418ZM125.656 505V492.156H127.602V505H125.656ZM137.75 491.922C139.352 491.922 140.629 492.473 141.582 493.574C142.535 494.676 143.012 496.332 143.012 498.543C143.012 500.004 142.793 501.23 142.356 502.223C141.918 503.215 141.301 503.965 140.504 504.473C139.715 504.98 138.781 505.234 137.703 505.234C137.024 505.234 136.426 505.145 135.91 504.965C135.395 504.785 134.953 504.543 134.586 504.238C134.219 503.934 133.914 503.602 133.672 503.242H133.531C133.555 503.547 133.582 503.914 133.614 504.344C133.653 504.773 133.672 505.148 133.672 505.469V510.742H131.715V492.156H133.321L133.578 494.055H133.672C133.922 493.664 134.227 493.309 134.586 492.988C134.946 492.66 135.383 492.402 135.899 492.215C136.422 492.02 137.039 491.922 137.75 491.922ZM137.41 493.562C136.52 493.562 135.801 493.734 135.254 494.078C134.715 494.422 134.321 494.938 134.071 495.625C133.821 496.305 133.688 497.16 133.672 498.191V498.566C133.672 499.652 133.789 500.57 134.024 501.32C134.266 502.07 134.66 502.641 135.207 503.031C135.762 503.422 136.504 503.617 137.434 503.617C138.231 503.617 138.895 503.402 139.426 502.973C139.957 502.543 140.352 501.945 140.61 501.18C140.875 500.406 141.008 499.52 141.008 498.52C141.008 497.004 140.711 495.801 140.117 494.91C139.531 494.012 138.629 493.562 137.41 493.562ZM144.383 492.156H146.469L149.305 499.609C149.469 500.047 149.621 500.469 149.762 500.875C149.903 501.273 150.028 501.656 150.137 502.023C150.246 502.391 150.332 502.746 150.395 503.09H150.477C150.586 502.699 150.742 502.188 150.946 501.555C151.149 500.914 151.367 500.262 151.602 499.598L154.285 492.156H156.383L150.793 506.887C150.496 507.676 150.149 508.363 149.75 508.949C149.36 509.535 148.883 509.984 148.321 510.297C147.758 510.617 147.078 510.777 146.281 510.777C145.914 510.777 145.59 510.754 145.309 510.707C145.028 510.668 144.785 510.621 144.582 510.566V509.008C144.754 509.047 144.961 509.082 145.203 509.113C145.453 509.145 145.711 509.16 145.977 509.16C146.461 509.16 146.879 509.066 147.231 508.879C147.59 508.699 147.899 508.434 148.156 508.082C148.414 507.73 148.637 507.312 148.824 506.828L149.528 505.023L144.383 492.156ZM160.133 492.156V496.773C160.133 497.578 160.352 498.172 160.789 498.555C161.235 498.938 161.879 499.129 162.723 499.129C163.535 499.129 164.274 499.004 164.938 498.754C165.602 498.504 166.274 498.164 166.953 497.734V492.156H168.899V505H166.953V499.246C166.235 499.707 165.528 500.07 164.832 500.336C164.137 500.602 163.305 500.734 162.336 500.734C161.016 500.734 159.992 500.391 159.266 499.703C158.547 499.016 158.188 498.086 158.188 496.914V492.156H160.133ZM180.5 492.156H182.645L177.102 498.355L183.09 505H180.805L174.969 498.484V505H173.012V492.156H174.969V498.391L180.5 492.156ZM190.215 491.945C191.746 491.945 192.883 492.289 193.625 492.977C194.367 493.664 194.739 494.762 194.739 496.27V505H193.321L192.946 503.102H192.852C192.492 503.57 192.117 503.965 191.727 504.285C191.336 504.598 190.883 504.836 190.367 505C189.86 505.156 189.235 505.234 188.492 505.234C187.711 505.234 187.016 505.098 186.406 504.824C185.805 504.551 185.328 504.137 184.977 503.582C184.633 503.027 184.461 502.324 184.461 501.473C184.461 500.191 184.969 499.207 185.985 498.52C187 497.832 188.547 497.457 190.625 497.395L192.84 497.301V496.516C192.84 495.406 192.602 494.629 192.125 494.184C191.649 493.738 190.977 493.516 190.11 493.516C189.438 493.516 188.797 493.613 188.188 493.809C187.578 494.004 187 494.234 186.453 494.5L185.856 493.023C186.434 492.727 187.098 492.473 187.848 492.262C188.598 492.051 189.387 491.945 190.215 491.945ZM192.817 498.672L190.86 498.754C189.258 498.816 188.129 499.078 187.473 499.539C186.817 500 186.489 500.652 186.489 501.496C186.489 502.23 186.711 502.773 187.156 503.125C187.602 503.477 188.192 503.652 188.926 503.652C190.067 503.652 191 503.336 191.727 502.703C192.453 502.07 192.817 501.121 192.817 499.855V498.672ZM198.453 503.781C198.453 503.234 198.586 502.848 198.852 502.621C199.117 502.387 199.442 502.27 199.824 502.27C200.223 502.27 200.559 502.387 200.832 502.621C201.106 502.848 201.242 503.234 201.242 503.781C201.242 504.32 201.106 504.715 200.832 504.965C200.559 505.207 200.223 505.328 199.824 505.328C199.442 505.328 199.117 505.207 198.852 504.965C198.586 504.715 198.453 504.32 198.453 503.781ZM198.453 493.387C198.453 492.824 198.586 492.43 198.852 492.203C199.117 491.969 199.442 491.852 199.824 491.852C200.223 491.852 200.559 491.969 200.832 492.203C201.106 492.43 201.242 492.824 201.242 493.387C201.242 493.918 201.106 494.305 200.832 494.547C200.559 494.789 200.223 494.91 199.824 494.91C199.442 494.91 199.117 494.789 198.852 494.547C198.586 494.305 198.453 493.918 198.453 493.387Z" fill="#2E4555"/>
<path d="M254.012 505H242.785V503.371L247.367 498.719C248.219 497.859 248.934 497.094 249.512 496.422C250.098 495.75 250.543 495.09 250.848 494.441C251.153 493.785 251.305 493.066 251.305 492.285C251.305 491.316 251.016 490.578 250.438 490.07C249.867 489.555 249.114 489.297 248.176 489.297C247.356 489.297 246.629 489.438 245.996 489.719C245.364 490 244.715 490.398 244.051 490.914L243.008 489.602C243.461 489.219 243.953 488.879 244.485 488.582C245.024 488.285 245.598 488.051 246.207 487.879C246.824 487.707 247.481 487.621 248.176 487.621C249.231 487.621 250.141 487.805 250.906 488.172C251.672 488.539 252.262 489.062 252.676 489.742C253.098 490.422 253.309 491.23 253.309 492.168C253.309 493.074 253.129 493.918 252.77 494.699C252.41 495.473 251.906 496.242 251.258 497.008C250.61 497.766 249.852 498.57 248.985 499.422L245.258 503.137V503.219H254.012V505ZM273.348 491.863C273.348 492.629 273.199 493.293 272.903 493.855C272.606 494.418 272.192 494.879 271.66 495.238C271.129 495.59 270.504 495.836 269.785 495.977V496.07C271.145 496.242 272.164 496.68 272.844 497.383C273.531 498.086 273.875 499.008 273.875 500.148C273.875 501.141 273.641 502.02 273.172 502.785C272.711 503.551 272 504.152 271.039 504.59C270.086 505.02 268.864 505.234 267.371 505.234C266.465 505.234 265.625 505.16 264.852 505.012C264.086 504.871 263.352 504.633 262.649 504.297V502.469C263.36 502.82 264.133 503.098 264.969 503.301C265.805 503.496 266.614 503.594 267.395 503.594C268.957 503.594 270.086 503.285 270.781 502.668C271.477 502.043 271.824 501.191 271.824 500.113C271.824 499.371 271.629 498.773 271.239 498.32C270.856 497.859 270.301 497.523 269.574 497.312C268.856 497.094 267.989 496.984 266.973 496.984H265.262V495.32H266.985C267.914 495.32 268.703 495.184 269.352 494.91C270 494.637 270.492 494.254 270.828 493.762C271.172 493.262 271.344 492.672 271.344 491.992C271.344 491.125 271.055 490.457 270.477 489.988C269.899 489.512 269.114 489.273 268.121 489.273C267.512 489.273 266.957 489.336 266.457 489.461C265.957 489.586 265.489 489.758 265.051 489.977C264.614 490.195 264.176 490.449 263.739 490.738L262.754 489.402C263.379 488.918 264.141 488.5 265.039 488.148C265.938 487.797 266.957 487.621 268.098 487.621C269.848 487.621 271.16 488.02 272.035 488.816C272.91 489.613 273.348 490.629 273.348 491.863ZM287.809 496.41C287.809 497.801 287.703 499.043 287.492 500.137C287.281 501.23 286.949 502.156 286.496 502.914C286.043 503.672 285.457 504.25 284.739 504.648C284.02 505.039 283.156 505.234 282.149 505.234C280.875 505.234 279.821 504.887 278.985 504.191C278.156 503.496 277.535 502.492 277.121 501.18C276.715 499.859 276.512 498.27 276.512 496.41C276.512 494.582 276.696 493.012 277.063 491.699C277.438 490.379 278.039 489.367 278.867 488.664C279.696 487.953 280.789 487.598 282.149 487.598C283.438 487.598 284.5 487.949 285.336 488.652C286.172 489.348 286.793 490.355 287.199 491.676C287.606 492.988 287.809 494.566 287.809 496.41ZM278.469 496.41C278.469 498.004 278.59 499.332 278.832 500.395C279.074 501.457 279.465 502.254 280.004 502.785C280.551 503.309 281.266 503.57 282.149 503.57C283.031 503.57 283.742 503.309 284.281 502.785C284.828 502.262 285.223 501.469 285.465 500.406C285.715 499.344 285.84 498.012 285.84 496.41C285.84 494.84 285.719 493.527 285.477 492.473C285.235 491.41 284.844 490.613 284.305 490.082C283.766 489.543 283.047 489.273 282.149 489.273C281.25 489.273 280.531 489.543 279.992 490.082C279.453 490.613 279.063 491.41 278.821 492.473C278.586 493.527 278.469 494.84 278.469 496.41ZM301.543 496.41C301.543 497.801 301.438 499.043 301.227 500.137C301.016 501.23 300.684 502.156 300.231 502.914C299.778 503.672 299.192 504.25 298.473 504.648C297.754 505.039 296.891 505.234 295.883 505.234C294.61 505.234 293.555 504.887 292.719 504.191C291.891 503.496 291.27 502.492 290.856 501.18C290.449 499.859 290.246 498.27 290.246 496.41C290.246 494.582 290.43 493.012 290.797 491.699C291.172 490.379 291.774 489.367 292.602 488.664C293.43 487.953 294.524 487.598 295.883 487.598C297.172 487.598 298.235 487.949 299.071 488.652C299.906 489.348 300.528 490.355 300.934 491.676C301.34 492.988 301.543 494.566 301.543 496.41ZM292.203 496.41C292.203 498.004 292.324 499.332 292.567 500.395C292.809 501.457 293.199 502.254 293.739 502.785C294.285 503.309 295 503.57 295.883 503.57C296.766 503.57 297.477 503.309 298.016 502.785C298.563 502.262 298.957 501.469 299.199 500.406C299.449 499.344 299.574 498.012 299.574 496.41C299.574 494.84 299.453 493.527 299.211 492.473C298.969 491.41 298.578 490.613 298.039 490.082C297.5 489.543 296.781 489.273 295.883 489.273C294.985 489.273 294.266 489.543 293.727 490.082C293.188 490.613 292.797 491.41 292.555 492.473C292.321 493.527 292.203 494.84 292.203 496.41ZM317.094 491.922C318.696 491.922 319.973 492.473 320.926 493.574C321.879 494.676 322.356 496.332 322.356 498.543C322.356 500.004 322.137 501.23 321.699 502.223C321.262 503.215 320.645 503.965 319.848 504.473C319.059 504.98 318.125 505.234 317.047 505.234C316.367 505.234 315.77 505.145 315.254 504.965C314.739 504.785 314.297 504.543 313.93 504.238C313.563 503.934 313.258 503.602 313.016 503.242H312.875C312.899 503.547 312.926 503.914 312.957 504.344C312.996 504.773 313.016 505.148 313.016 505.469V510.742H311.059V492.156H312.664L312.922 494.055H313.016C313.266 493.664 313.571 493.309 313.93 492.988C314.289 492.66 314.727 492.402 315.242 492.215C315.766 492.02 316.383 491.922 317.094 491.922ZM316.754 493.562C315.864 493.562 315.145 493.734 314.598 494.078C314.059 494.422 313.664 494.938 313.414 495.625C313.164 496.305 313.031 497.16 313.016 498.191V498.566C313.016 499.652 313.133 500.57 313.367 501.32C313.61 502.07 314.004 502.641 314.551 503.031C315.106 503.422 315.848 503.617 316.778 503.617C317.574 503.617 318.239 503.402 318.77 502.973C319.301 502.543 319.696 501.945 319.953 501.18C320.219 500.406 320.352 499.52 320.352 498.52C320.352 497.004 320.055 495.801 319.461 494.91C318.875 494.012 317.973 493.562 316.754 493.562ZM323.727 492.156H325.813L328.649 499.609C328.813 500.047 328.965 500.469 329.106 500.875C329.246 501.273 329.371 501.656 329.481 502.023C329.59 502.391 329.676 502.746 329.739 503.09H329.821C329.93 502.699 330.086 502.188 330.289 501.555C330.492 500.914 330.711 500.262 330.946 499.598L333.629 492.156H335.727L330.137 506.887C329.84 507.676 329.492 508.363 329.094 508.949C328.703 509.535 328.227 509.984 327.664 510.297C327.102 510.617 326.422 510.777 325.625 510.777C325.258 510.777 324.934 510.754 324.653 510.707C324.371 510.668 324.129 510.621 323.926 510.566V509.008C324.098 509.047 324.305 509.082 324.547 509.113C324.797 509.145 325.055 509.16 325.321 509.16C325.805 509.16 326.223 509.066 326.574 508.879C326.934 508.699 327.242 508.434 327.5 508.082C327.758 507.73 327.981 507.312 328.168 506.828L328.871 505.023L323.727 492.156ZM337.11 497.289C337.11 495.461 337.285 493.902 337.637 492.613C337.989 491.316 338.531 490.277 339.266 489.496C340.008 488.707 340.961 488.168 342.125 487.879C343.125 487.605 344.141 487.371 345.172 487.176C346.203 486.973 347.207 486.797 348.184 486.648L348.524 488.359C348.031 488.43 347.516 488.512 346.977 488.605C346.438 488.691 345.899 488.785 345.36 488.887C344.821 488.98 344.313 489.082 343.836 489.191C343.36 489.293 342.938 489.398 342.571 489.508C341.906 489.688 341.332 490 340.848 490.445C340.371 490.891 339.992 491.504 339.711 492.285C339.438 493.066 339.274 494.051 339.219 495.238H339.36C339.594 494.895 339.914 494.555 340.321 494.219C340.727 493.883 341.211 493.605 341.774 493.387C342.336 493.16 342.969 493.047 343.672 493.047C344.781 493.047 345.707 493.289 346.449 493.773C347.192 494.25 347.75 494.922 348.125 495.789C348.5 496.656 348.688 497.672 348.688 498.836C348.688 500.234 348.446 501.41 347.961 502.363C347.485 503.316 346.813 504.035 345.946 504.52C345.078 504.996 344.059 505.234 342.887 505.234C341.981 505.234 341.168 505.059 340.449 504.707C339.739 504.355 339.133 503.84 338.633 503.16C338.141 502.48 337.762 501.648 337.496 500.664C337.239 499.68 337.11 498.555 337.11 497.289ZM343.039 503.617C343.781 503.617 344.418 503.461 344.949 503.148C345.489 502.836 345.903 502.344 346.192 501.672C346.489 500.992 346.637 500.109 346.637 499.023C346.637 497.664 346.375 496.602 345.852 495.836C345.336 495.062 344.508 494.676 343.367 494.676C342.656 494.676 342.012 494.828 341.434 495.133C340.856 495.43 340.367 495.785 339.969 496.199C339.571 496.613 339.281 496.984 339.102 497.312C339.102 498.109 339.16 498.883 339.278 499.633C339.395 500.383 339.598 501.059 339.887 501.66C340.176 502.262 340.574 502.738 341.082 503.09C341.598 503.441 342.25 503.617 343.039 503.617Z" fill="#2E4555"/>
<ellipse cx="607.5" cy="257.5" rx="257.5" ry="257.5" fill="#234E9B"/>
<path d="M607.5 0C673.322 7.84917e-07 736.645 25.2062 784.461 70.4406C832.276 115.675 860.955 177.503 864.604 243.223L607.5 257.5V0Z" fill="#E31E24"/>
<ellipse cx="607.994" cy="258" rx="231" ry="231" fill="white"/>
<path d="M507.117 234.398C507.117 235.977 506.789 237.344 506.133 238.5C505.477 239.656 504.586 240.602 503.461 241.336C502.352 242.07 501.102 242.609 499.711 242.953V243.094C502.461 243.438 504.547 244.281 505.969 245.625C507.406 246.969 508.125 248.766 508.125 251.016C508.125 253.016 507.633 254.805 506.649 256.383C505.68 257.961 504.18 259.203 502.149 260.109C500.117 261.016 497.5 261.469 494.297 261.469C492.406 261.469 490.641 261.312 489 261C487.375 260.703 485.844 260.242 484.406 259.617V253.453C485.875 254.203 487.414 254.773 489.024 255.164C490.633 255.539 492.133 255.727 493.524 255.727C496.117 255.727 497.93 255.281 498.961 254.391C500.008 253.484 500.531 252.219 500.531 250.594C500.531 249.641 500.289 248.836 499.805 248.18C499.32 247.523 498.477 247.023 497.274 246.68C496.086 246.336 494.422 246.164 492.281 246.164H489.68V240.609H492.328C494.438 240.609 496.039 240.414 497.133 240.023C498.242 239.617 498.992 239.07 499.383 238.383C499.789 237.68 499.992 236.883 499.992 235.992C499.992 234.773 499.617 233.82 498.867 233.133C498.117 232.445 496.867 232.102 495.117 232.102C494.024 232.102 493.024 232.242 492.117 232.523C491.227 232.789 490.422 233.117 489.703 233.508C488.985 233.883 488.352 234.25 487.805 234.609L484.453 229.617C485.797 228.648 487.367 227.844 489.164 227.203C490.977 226.562 493.133 226.242 495.633 226.242C499.164 226.242 501.961 226.953 504.024 228.375C506.086 229.797 507.117 231.805 507.117 234.398ZM524.438 239.109C526.531 239.109 528.391 239.508 530.016 240.305C531.656 241.102 532.945 242.273 533.883 243.82C534.82 245.367 535.289 247.273 535.289 249.539C535.289 252.008 534.774 254.141 533.742 255.938C532.727 257.719 531.203 259.086 529.172 260.039C527.156 260.992 524.641 261.469 521.625 261.469C519.828 261.469 518.133 261.312 516.539 261C514.961 260.703 513.578 260.242 512.391 259.617V253.359C513.578 253.984 515 254.516 516.656 254.953C518.328 255.375 519.899 255.586 521.367 255.586C522.805 255.586 524.016 255.398 525 255.023C525.985 254.633 526.727 254.039 527.227 253.242C527.742 252.43 528 251.398 528 250.148C528 248.477 527.438 247.195 526.313 246.305C525.188 245.414 523.461 244.969 521.133 244.969C520.242 244.969 519.313 245.055 518.344 245.227C517.391 245.398 516.594 245.57 515.953 245.742L513.07 244.195L514.36 226.734H532.945V232.875H520.711L520.078 239.602C520.61 239.492 521.188 239.383 521.813 239.273C522.438 239.164 523.313 239.109 524.438 239.109ZM575.672 243.867C575.672 246.633 575.453 249.102 575.016 251.273C574.594 253.445 573.906 255.289 572.953 256.805C572.016 258.32 570.781 259.477 569.25 260.273C567.719 261.07 565.86 261.469 563.672 261.469C560.922 261.469 558.664 260.773 556.899 259.383C555.133 257.977 553.828 255.961 552.985 253.336C552.141 250.695 551.719 247.539 551.719 243.867C551.719 240.164 552.102 237 552.867 234.375C553.649 231.734 554.914 229.711 556.664 228.305C558.414 226.898 560.75 226.195 563.672 226.195C566.406 226.195 568.656 226.898 570.422 228.305C572.203 229.695 573.524 231.711 574.383 234.352C575.242 236.977 575.672 240.148 575.672 243.867ZM558.914 243.867C558.914 246.477 559.055 248.656 559.336 250.406C559.633 252.141 560.125 253.445 560.813 254.32C561.5 255.195 562.453 255.633 563.672 255.633C564.875 255.633 565.82 255.203 566.508 254.344C567.211 253.469 567.711 252.164 568.008 250.43C568.305 248.68 568.453 246.492 568.453 243.867C568.453 241.258 568.305 239.078 568.008 237.328C567.711 235.578 567.211 234.266 566.508 233.391C565.82 232.5 564.875 232.055 563.672 232.055C562.453 232.055 561.5 232.5 560.813 233.391C560.125 234.266 559.633 235.578 559.336 237.328C559.055 239.078 558.914 241.258 558.914 243.867ZM603.141 243.867C603.141 246.633 602.922 249.102 602.485 251.273C602.063 253.445 601.375 255.289 600.422 256.805C599.485 258.32 598.25 259.477 596.719 260.273C595.188 261.07 593.328 261.469 591.141 261.469C588.391 261.469 586.133 260.773 584.367 259.383C582.602 257.977 581.297 255.961 580.453 253.336C579.61 250.695 579.188 247.539 579.188 243.867C579.188 240.164 579.57 237 580.336 234.375C581.117 231.734 582.383 229.711 584.133 228.305C585.883 226.898 588.219 226.195 591.141 226.195C593.875 226.195 596.125 226.898 597.891 228.305C599.672 229.695 600.992 231.711 601.852 234.352C602.711 236.977 603.141 240.148 603.141 243.867ZM586.383 243.867C586.383 246.477 586.524 248.656 586.805 250.406C587.102 252.141 587.594 253.445 588.281 254.32C588.969 255.195 589.922 255.633 591.141 255.633C592.344 255.633 593.289 255.203 593.977 254.344C594.68 253.469 595.18 252.164 595.477 250.43C595.774 248.68 595.922 246.492 595.922 243.867C595.922 241.258 595.774 239.078 595.477 237.328C595.18 235.578 594.68 234.266 593.977 233.391C593.289 232.5 592.344 232.055 591.141 232.055C589.922 232.055 588.969 232.5 588.281 233.391C587.594 234.266 587.102 235.578 586.805 237.328C586.524 239.078 586.383 241.258 586.383 243.867ZM630.61 243.867C630.61 246.633 630.391 249.102 629.953 251.273C629.531 253.445 628.844 255.289 627.891 256.805C626.953 258.32 625.719 259.477 624.188 260.273C622.656 261.07 620.797 261.469 618.61 261.469C615.86 261.469 613.602 260.773 611.836 259.383C610.07 257.977 608.766 255.961 607.922 253.336C607.078 250.695 606.656 247.539 606.656 243.867C606.656 240.164 607.039 237 607.805 234.375C608.586 231.734 609.852 229.711 611.602 228.305C613.352 226.898 615.688 226.195 618.61 226.195C621.344 226.195 623.594 226.898 625.36 228.305C627.141 229.695 628.461 231.711 629.32 234.352C630.18 236.977 630.61 240.148 630.61 243.867ZM613.852 243.867C613.852 246.477 613.992 248.656 614.274 250.406C614.57 252.141 615.063 253.445 615.75 254.32C616.438 255.195 617.391 255.633 618.61 255.633C619.813 255.633 620.758 255.203 621.445 254.344C622.149 253.469 622.649 252.164 622.945 250.43C623.242 248.68 623.391 246.492 623.391 243.867C623.391 241.258 623.242 239.078 622.945 237.328C622.649 235.578 622.149 234.266 621.445 233.391C620.758 232.5 619.813 232.055 618.61 232.055C617.391 232.055 616.438 232.5 615.75 233.391C615.063 234.266 614.57 235.578 614.274 237.328C613.992 239.078 613.852 241.258 613.852 243.867ZM663.188 234.305C666.141 234.305 668.524 235.453 670.336 237.75C672.164 240.047 673.078 243.414 673.078 247.852C673.078 250.82 672.649 253.32 671.789 255.352C670.93 257.367 669.742 258.891 668.227 259.922C666.711 260.953 664.969 261.469 663 261.469C661.735 261.469 660.649 261.312 659.742 261C658.836 260.672 658.063 260.258 657.422 259.758C656.781 259.242 656.227 258.695 655.758 258.117H655.383C655.508 258.742 655.602 259.383 655.664 260.039C655.727 260.695 655.758 261.336 655.758 261.961V272.531H648.61V234.797H654.422L655.43 238.195H655.758C656.227 237.492 656.797 236.844 657.469 236.25C658.141 235.656 658.945 235.188 659.883 234.844C660.836 234.484 661.938 234.305 663.188 234.305ZM660.891 240.023C659.641 240.023 658.649 240.281 657.914 240.797C657.18 241.312 656.641 242.086 656.297 243.117C655.969 244.148 655.789 245.453 655.758 247.031V247.805C655.758 249.492 655.914 250.922 656.227 252.094C656.555 253.266 657.094 254.156 657.844 254.766C658.61 255.375 659.656 255.68 660.985 255.68C662.078 255.68 662.977 255.375 663.68 254.766C664.383 254.156 664.906 253.266 665.25 252.094C665.61 250.906 665.789 249.461 665.789 247.758C665.789 245.195 665.391 243.266 664.594 241.969C663.797 240.672 662.563 240.023 660.891 240.023ZM675.235 234.797H683.063L688.008 249.539C688.164 250.008 688.297 250.484 688.406 250.969C688.516 251.453 688.61 251.953 688.688 252.469C688.766 252.984 688.828 253.523 688.875 254.086H689.016C689.11 253.242 689.235 252.453 689.391 251.719C689.563 250.984 689.774 250.258 690.024 249.539L694.875 234.797H702.539L691.453 264.352C690.781 266.164 689.906 267.672 688.828 268.875C687.75 270.094 686.508 271.008 685.102 271.617C683.711 272.227 682.18 272.531 680.508 272.531C679.695 272.531 678.992 272.484 678.399 272.391C677.805 272.312 677.297 272.227 676.875 272.133V266.461C677.203 266.539 677.617 266.609 678.117 266.672C678.617 266.734 679.141 266.766 679.688 266.766C680.688 266.766 681.547 266.555 682.266 266.133C682.985 265.711 683.586 265.141 684.07 264.422C684.555 263.719 684.938 262.945 685.219 262.102L685.641 260.812L675.235 234.797ZM704.719 245.297C704.719 241.438 705.195 238.156 706.149 235.453C707.102 232.75 708.617 230.594 710.695 228.984C712.774 227.359 715.5 226.258 718.875 225.68C720.563 225.383 722.274 225.141 724.008 224.953C725.758 224.75 727.57 224.523 729.445 224.273L730.266 230.531C729.453 230.625 728.57 230.727 727.617 230.836C726.664 230.945 725.703 231.062 724.735 231.188C723.766 231.297 722.828 231.414 721.922 231.539C721.016 231.648 720.195 231.758 719.461 231.867C717.867 232.117 716.539 232.508 715.477 233.039C714.414 233.57 713.602 234.414 713.039 235.57C712.477 236.727 712.133 238.391 712.008 240.562H712.36C712.735 239.969 713.266 239.367 713.953 238.758C714.641 238.133 715.492 237.617 716.508 237.211C717.524 236.789 718.695 236.578 720.024 236.578C722.117 236.578 723.93 237.008 725.461 237.867C726.992 238.727 728.172 240.008 729 241.711C729.844 243.398 730.266 245.508 730.266 248.039C730.266 251.008 729.719 253.492 728.625 255.492C727.547 257.477 726.047 258.969 724.125 259.969C722.203 260.969 719.977 261.469 717.445 261.469C715.508 261.469 713.758 261.117 712.195 260.414C710.633 259.711 709.289 258.672 708.164 257.297C707.055 255.922 706.203 254.234 705.61 252.234C705.016 250.219 704.719 247.906 704.719 245.297ZM717.867 255.68C718.883 255.68 719.766 255.461 720.516 255.023C721.281 254.57 721.875 253.836 722.297 252.82C722.735 251.789 722.953 250.406 722.953 248.672C722.953 246.578 722.602 244.922 721.899 243.703C721.211 242.469 720.031 241.852 718.36 241.852C717.344 241.852 716.391 242.102 715.5 242.602C714.625 243.086 713.883 243.648 713.274 244.289C712.664 244.914 712.242 245.445 712.008 245.883C712.008 247.117 712.102 248.32 712.289 249.492C712.492 250.648 712.813 251.695 713.25 252.633C713.688 253.57 714.281 254.312 715.031 254.859C715.797 255.406 716.742 255.68 717.867 255.68ZM483.949 299H472.723V297.371L477.305 292.719C478.156 291.859 478.871 291.094 479.449 290.422C480.035 289.75 480.481 289.09 480.785 288.441C481.09 287.785 481.242 287.066 481.242 286.285C481.242 285.316 480.953 284.578 480.375 284.07C479.805 283.555 479.051 283.297 478.113 283.297C477.293 283.297 476.567 283.438 475.934 283.719C475.301 284 474.652 284.398 473.988 284.914L472.945 283.602C473.399 283.219 473.891 282.879 474.422 282.582C474.961 282.285 475.535 282.051 476.145 281.879C476.762 281.707 477.418 281.621 478.113 281.621C479.168 281.621 480.078 281.805 480.844 282.172C481.61 282.539 482.199 283.062 482.613 283.742C483.035 284.422 483.246 285.23 483.246 286.168C483.246 287.074 483.067 287.918 482.707 288.699C482.348 289.473 481.844 290.242 481.195 291.008C480.547 291.766 479.789 292.57 478.922 293.422L475.195 297.137V297.219H483.949V299ZM498.539 295.027H495.973V299H494.074V295.027H485.789V293.387L493.945 281.773H495.973V293.27H498.539V295.027ZM494.074 293.27V287.668C494.074 287.238 494.078 286.852 494.086 286.508C494.094 286.156 494.106 285.832 494.121 285.535C494.137 285.23 494.149 284.941 494.156 284.668C494.172 284.395 494.184 284.125 494.192 283.859H494.098C493.949 284.172 493.777 284.504 493.582 284.855C493.395 285.199 493.203 285.508 493.008 285.781L487.723 293.27H494.074ZM503.684 281.621C504.856 281.621 505.742 282.09 506.344 283.027C506.953 283.957 507.258 285.273 507.258 286.977C507.258 288.68 506.965 290.008 506.379 290.961C505.793 291.906 504.895 292.379 503.684 292.379C502.559 292.379 501.695 291.906 501.094 290.961C500.5 290.008 500.203 288.68 500.203 286.977C500.203 285.273 500.488 283.957 501.059 283.027C501.629 282.09 502.504 281.621 503.684 281.621ZM503.684 283.016C503.051 283.016 502.586 283.348 502.289 284.012C501.992 284.668 501.844 285.656 501.844 286.977C501.844 288.297 501.992 289.293 502.289 289.965C502.586 290.637 503.051 290.973 503.684 290.973C504.34 290.973 504.828 290.637 505.149 289.965C505.469 289.293 505.629 288.297 505.629 286.977C505.629 285.664 505.469 284.676 505.149 284.012C504.836 283.348 504.348 283.016 503.684 283.016ZM514.535 281.867L505.031 299H503.32L512.824 281.867H514.535ZM514.078 288.488C515.242 288.488 516.129 288.957 516.738 289.895C517.348 290.824 517.652 292.141 517.652 293.844C517.652 295.539 517.36 296.863 516.774 297.816C516.188 298.762 515.289 299.234 514.078 299.234C512.945 299.234 512.082 298.762 511.488 297.816C510.895 296.863 510.598 295.539 510.598 293.844C510.598 292.141 510.879 290.824 511.442 289.895C512.012 288.957 512.891 288.488 514.078 288.488ZM514.078 289.895C513.445 289.895 512.981 290.223 512.684 290.879C512.387 291.535 512.238 292.523 512.238 293.844C512.238 295.164 512.387 296.16 512.684 296.832C512.981 297.496 513.445 297.828 514.078 297.828C514.735 297.828 515.223 297.5 515.543 296.844C515.863 296.18 516.024 295.18 516.024 293.844C516.024 292.531 515.863 291.547 515.543 290.891C515.231 290.227 514.742 289.895 514.078 289.895ZM538.219 292.555C538.219 293.609 538.082 294.551 537.809 295.379C537.535 296.207 537.141 296.906 536.625 297.477C536.11 298.047 535.485 298.484 534.75 298.789C534.024 299.086 533.199 299.234 532.277 299.234C531.418 299.234 530.629 299.086 529.91 298.789C529.199 298.484 528.582 298.047 528.059 297.477C527.543 296.906 527.141 296.207 526.852 295.379C526.57 294.551 526.43 293.609 526.43 292.555C526.43 291.148 526.668 289.953 527.145 288.969C527.621 287.977 528.301 287.223 529.184 286.707C530.074 286.184 531.133 285.922 532.36 285.922C533.531 285.922 534.555 286.184 535.43 286.707C536.313 287.23 536.996 287.988 537.481 288.98C537.973 289.965 538.219 291.156 538.219 292.555ZM528.445 292.555C528.445 293.586 528.582 294.48 528.856 295.238C529.129 295.996 529.551 296.582 530.121 296.996C530.692 297.41 531.426 297.617 532.324 297.617C533.215 297.617 533.945 297.41 534.516 296.996C535.094 296.582 535.52 295.996 535.793 295.238C536.067 294.48 536.203 293.586 536.203 292.555C536.203 291.531 536.067 290.648 535.793 289.906C535.52 289.156 535.098 288.578 534.527 288.172C533.957 287.766 533.219 287.562 532.313 287.562C530.977 287.562 529.996 288.004 529.371 288.887C528.754 289.77 528.445 290.992 528.445 292.555ZM550.336 287.809H546.106V299H544.184V287.809H540.012V286.156H550.336V287.809ZM570.188 292.555C570.188 293.609 570.051 294.551 569.777 295.379C569.504 296.207 569.11 296.906 568.594 297.477C568.078 298.047 567.453 298.484 566.719 298.789C565.992 299.086 565.168 299.234 564.246 299.234C563.387 299.234 562.598 299.086 561.879 298.789C561.168 298.484 560.551 298.047 560.027 297.477C559.512 296.906 559.11 296.207 558.82 295.379C558.539 294.551 558.399 293.609 558.399 292.555C558.399 291.148 558.637 289.953 559.113 288.969C559.59 287.977 560.27 287.223 561.152 286.707C562.043 286.184 563.102 285.922 564.328 285.922C565.5 285.922 566.524 286.184 567.399 286.707C568.281 287.23 568.965 287.988 569.449 288.98C569.942 289.965 570.188 291.156 570.188 292.555ZM560.414 292.555C560.414 293.586 560.551 294.48 560.824 295.238C561.098 295.996 561.52 296.582 562.09 296.996C562.66 297.41 563.395 297.617 564.293 297.617C565.184 297.617 565.914 297.41 566.485 296.996C567.063 296.582 567.488 295.996 567.762 295.238C568.035 294.48 568.172 293.586 568.172 292.555C568.172 291.531 568.035 290.648 567.762 289.906C567.488 289.156 567.067 288.578 566.496 288.172C565.926 287.766 565.188 287.562 564.281 287.562C562.945 287.562 561.965 288.004 561.34 288.887C560.723 289.77 560.414 290.992 560.414 292.555ZM572.883 291.289C572.883 289.461 573.059 287.902 573.41 286.613C573.762 285.316 574.305 284.277 575.039 283.496C575.781 282.707 576.735 282.168 577.899 281.879C578.899 281.605 579.914 281.371 580.945 281.176C581.977 280.973 582.981 280.797 583.957 280.648L584.297 282.359C583.805 282.43 583.289 282.512 582.75 282.605C582.211 282.691 581.672 282.785 581.133 282.887C580.594 282.98 580.086 283.082 579.61 283.191C579.133 283.293 578.711 283.398 578.344 283.508C577.68 283.688 577.106 284 576.621 284.445C576.145 284.891 575.766 285.504 575.485 286.285C575.211 287.066 575.047 288.051 574.992 289.238H575.133C575.367 288.895 575.688 288.555 576.094 288.219C576.5 287.883 576.985 287.605 577.547 287.387C578.11 287.16 578.742 287.047 579.445 287.047C580.555 287.047 581.481 287.289 582.223 287.773C582.965 288.25 583.524 288.922 583.899 289.789C584.274 290.656 584.461 291.672 584.461 292.836C584.461 294.234 584.219 295.41 583.735 296.363C583.258 297.316 582.586 298.035 581.719 298.52C580.852 298.996 579.832 299.234 578.66 299.234C577.754 299.234 576.942 299.059 576.223 298.707C575.512 298.355 574.906 297.84 574.406 297.16C573.914 296.48 573.535 295.648 573.27 294.664C573.012 293.68 572.883 292.555 572.883 291.289ZM578.813 297.617C579.555 297.617 580.192 297.461 580.723 297.148C581.262 296.836 581.676 296.344 581.965 295.672C582.262 294.992 582.41 294.109 582.41 293.023C582.41 291.664 582.149 290.602 581.625 289.836C581.11 289.062 580.281 288.676 579.141 288.676C578.43 288.676 577.785 288.828 577.207 289.133C576.629 289.43 576.141 289.785 575.742 290.199C575.344 290.613 575.055 290.984 574.875 291.312C574.875 292.109 574.934 292.883 575.051 293.633C575.168 294.383 575.371 295.059 575.66 295.66C575.949 296.262 576.348 296.738 576.856 297.09C577.371 297.441 578.024 297.617 578.813 297.617ZM605.039 286.156V297.371H606.879V303.418H604.922V299H587.824V286.156H589.77V297.348H595.453V286.156H597.41V297.348H603.106V286.156H605.039ZM614.309 285.922C615.402 285.922 616.34 286.164 617.121 286.648C617.902 287.133 618.5 287.812 618.914 288.688C619.328 289.555 619.535 290.57 619.535 291.734V292.941H610.664C610.688 294.449 611.063 295.598 611.789 296.387C612.516 297.176 613.539 297.57 614.86 297.57C615.672 297.57 616.391 297.496 617.016 297.348C617.641 297.199 618.289 296.98 618.961 296.691V298.402C618.313 298.691 617.668 298.902 617.027 299.035C616.395 299.168 615.645 299.234 614.777 299.234C613.543 299.234 612.465 298.984 611.543 298.484C610.629 297.977 609.918 297.234 609.41 296.258C608.902 295.281 608.649 294.086 608.649 292.672C608.649 291.289 608.879 290.094 609.34 289.086C609.809 288.07 610.465 287.289 611.309 286.742C612.16 286.195 613.16 285.922 614.309 285.922ZM614.285 287.516C613.246 287.516 612.418 287.855 611.801 288.535C611.184 289.215 610.817 290.164 610.699 291.383H617.496C617.488 290.617 617.367 289.945 617.133 289.367C616.906 288.781 616.559 288.328 616.09 288.008C615.621 287.68 615.02 287.516 614.285 287.516ZM624.692 286.156V294.23C624.692 294.387 624.688 294.59 624.68 294.84C624.672 295.082 624.66 295.344 624.645 295.625C624.629 295.898 624.613 296.164 624.598 296.422C624.59 296.672 624.578 296.879 624.563 297.043L631.57 286.156H633.961V299H632.145V291.125C632.145 290.875 632.149 290.555 632.156 290.164C632.164 289.773 632.176 289.391 632.192 289.016C632.207 288.633 632.219 288.336 632.227 288.125L625.242 299H622.84V286.156H624.692ZM633 280.871C632.93 281.66 632.731 282.32 632.402 282.852C632.082 283.383 631.61 283.785 630.985 284.059C630.36 284.324 629.559 284.457 628.582 284.457C627.574 284.457 626.762 284.328 626.145 284.07C625.535 283.805 625.082 283.406 624.785 282.875C624.496 282.344 624.324 281.676 624.27 280.871H626.098C626.184 281.73 626.414 282.316 626.789 282.629C627.164 282.941 627.774 283.098 628.617 283.098C629.367 283.098 629.957 282.934 630.387 282.605C630.817 282.277 631.074 281.699 631.16 280.871H633ZM654.539 289.379C654.539 290.184 654.305 290.812 653.836 291.266C653.367 291.711 652.762 292.012 652.02 292.168V292.262C652.824 292.371 653.516 292.66 654.094 293.129C654.68 293.59 654.973 294.297 654.973 295.25C654.973 295.984 654.797 296.633 654.445 297.195C654.094 297.758 653.543 298.199 652.793 298.52C652.043 298.84 651.067 299 649.863 299H644.332V286.156H649.817C650.738 286.156 651.551 286.262 652.254 286.473C652.965 286.676 653.524 287.012 653.93 287.48C654.336 287.949 654.539 288.582 654.539 289.379ZM652.945 295.25C652.945 294.492 652.656 293.945 652.078 293.609C651.508 293.273 650.676 293.105 649.582 293.105H646.289V297.418H649.629C650.707 297.418 651.527 297.254 652.09 296.926C652.66 296.59 652.945 296.031 652.945 295.25ZM652.559 289.602C652.559 288.992 652.336 288.539 651.891 288.242C651.445 287.938 650.715 287.785 649.699 287.785H646.289V291.477H649.36C650.414 291.477 651.211 291.324 651.75 291.02C652.289 290.715 652.559 290.242 652.559 289.602ZM658.113 299V286.156H660.07V291.453H663.586C664.68 291.453 665.578 291.59 666.281 291.863C666.992 292.137 667.52 292.543 667.863 293.082C668.207 293.621 668.379 294.289 668.379 295.086C668.379 295.883 668.207 296.574 667.863 297.16C667.527 297.746 666.996 298.199 666.27 298.52C665.551 298.84 664.613 299 663.457 299H658.113ZM660.07 297.418H663.27C664.238 297.418 665.012 297.246 665.59 296.902C666.168 296.559 666.457 295.984 666.457 295.18C666.457 294.391 666.188 293.844 665.649 293.539C665.11 293.227 664.336 293.07 663.328 293.07H660.07V297.418ZM670.5 299V286.156H672.445V299H670.5ZM682.594 285.922C684.195 285.922 685.473 286.473 686.426 287.574C687.379 288.676 687.856 290.332 687.856 292.543C687.856 294.004 687.637 295.23 687.199 296.223C686.762 297.215 686.145 297.965 685.348 298.473C684.559 298.98 683.625 299.234 682.547 299.234C681.867 299.234 681.27 299.145 680.754 298.965C680.238 298.785 679.797 298.543 679.43 298.238C679.063 297.934 678.758 297.602 678.516 297.242H678.375C678.399 297.547 678.426 297.914 678.457 298.344C678.496 298.773 678.516 299.148 678.516 299.469V304.742H676.559V286.156H678.164L678.422 288.055H678.516C678.766 287.664 679.07 287.309 679.43 286.988C679.789 286.66 680.227 286.402 680.742 286.215C681.266 286.02 681.883 285.922 682.594 285.922ZM682.254 287.562C681.363 287.562 680.645 287.734 680.098 288.078C679.559 288.422 679.164 288.938 678.914 289.625C678.664 290.305 678.531 291.16 678.516 292.191V292.566C678.516 293.652 678.633 294.57 678.867 295.32C679.11 296.07 679.504 296.641 680.051 297.031C680.606 297.422 681.348 297.617 682.277 297.617C683.074 297.617 683.738 297.402 684.27 296.973C684.801 296.543 685.195 295.945 685.453 295.18C685.719 294.406 685.852 293.52 685.852 292.52C685.852 291.004 685.555 289.801 684.961 288.91C684.375 288.012 683.473 287.562 682.254 287.562ZM689.227 286.156H691.313L694.149 293.609C694.313 294.047 694.465 294.469 694.606 294.875C694.746 295.273 694.871 295.656 694.981 296.023C695.09 296.391 695.176 296.746 695.238 297.09H695.32C695.43 296.699 695.586 296.188 695.789 295.555C695.992 294.914 696.211 294.262 696.445 293.598L699.129 286.156H701.227L695.637 300.887C695.34 301.676 694.992 302.363 694.594 302.949C694.203 303.535 693.727 303.984 693.164 304.297C692.602 304.617 691.922 304.777 691.125 304.777C690.758 304.777 690.434 304.754 690.152 304.707C689.871 304.668 689.629 304.621 689.426 304.566V303.008C689.598 303.047 689.805 303.082 690.047 303.113C690.297 303.145 690.555 303.16 690.82 303.16C691.305 303.16 691.723 303.066 692.074 302.879C692.434 302.699 692.742 302.434 693 302.082C693.258 301.73 693.481 301.312 693.668 300.828L694.371 299.023L689.227 286.156ZM704.977 286.156V290.773C704.977 291.578 705.195 292.172 705.633 292.555C706.078 292.938 706.723 293.129 707.567 293.129C708.379 293.129 709.117 293.004 709.781 292.754C710.445 292.504 711.117 292.164 711.797 291.734V286.156H713.742V299H711.797V293.246C711.078 293.707 710.371 294.07 709.676 294.336C708.981 294.602 708.149 294.734 707.18 294.734C705.86 294.734 704.836 294.391 704.11 293.703C703.391 293.016 703.031 292.086 703.031 290.914V286.156H704.977ZM725.344 286.156H727.488L721.945 292.355L727.934 299H725.649L719.813 292.484V299H717.856V286.156H719.813V292.391L725.344 286.156ZM732.106 286.156V294.23C732.106 294.387 732.102 294.59 732.094 294.84C732.086 295.082 732.074 295.344 732.059 295.625C732.043 295.898 732.027 296.164 732.012 296.422C732.004 296.672 731.992 296.879 731.977 297.043L738.985 286.156H741.375V299H739.559V291.125C739.559 290.875 739.563 290.555 739.57 290.164C739.578 289.773 739.59 289.391 739.606 289.016C739.621 288.633 739.633 288.336 739.641 288.125L732.656 299H730.254V286.156H732.106Z" fill="#2E4555"/>
<defs>
<clipPath id="clip0_171_2730">
<rect width="32" height="32" fill="white" transform="translate(0.000244141 432)"/>
</clipPath>
<clipPath id="clip1_171_2730">
<rect width="32" height="32" fill="white" transform="translate(0.000244141 480)"/>
</clipPath>
</defs>
</svg>
