<svg width="382" height="69" viewBox="0 0 382 69" fill="none" xmlns="http://www.w3.org/2000/svg">
<path d="M375.842 23.4473C371.933 23.4473 368.023 23.4473 364.114 23.4473C363.027 25.2543 361.939 27.0613 360.852 28.8683C358.982 28.8683 357.113 28.8683 355.243 28.8683C360.438 20.2321 365.633 11.5959 370.829 2.95963C370.89 2.85862 371.094 2.53556 371.111 2.51823C371.937 1.28719 373.236 1.06758 374.402 1.07516C375.591 1.08301 377.156 1.44912 377.399 2.51281C377.415 2.58132 377.431 2.64983 377.446 2.71834C378.951 11.435 380.456 20.1517 381.961 28.8683C380.234 28.8683 378.506 28.8683 376.778 28.8683C376.466 27.0613 376.154 25.2543 375.842 23.4473ZM375.073 19.0176C374.453 15.4471 373.834 11.877 373.215 8.3065C371.068 11.877 368.92 15.4471 366.772 19.0176C369.539 19.0176 372.306 19.0176 375.073 19.0176ZM345.325 2.51769C344.52 6.18698 343.715 9.85626 342.91 13.5258C344.004 13.5258 344.855 13.3095 345.462 12.8624C346.068 12.4226 347 11.1287 348.276 9.00055C349.629 6.74428 351.066 4.64777 351.799 3.79476C353.913 1.33159 356.26 1.3465 359.5 1.35489C361.564 1.36004 359.9 5.51621 358.323 5.47478C357.755 5.45961 356.795 5.4542 356.196 5.80624C354.539 7.09631 352.774 11.4938 350.828 13.5071C349.91 14.4566 348.915 15.0656 347.834 15.3258C349.766 15.9205 351.044 17.568 351.677 20.2622C352.479 23.1415 353.364 26.0019 354.21 28.8683C352.217 28.8683 350.224 28.8683 348.231 28.8683C347.481 26.1869 346.732 23.5055 345.982 20.8238C345.386 18.6298 344.411 17.4388 342.04 17.4009C341.191 21.2235 340.343 25.0458 339.495 28.8683C337.576 28.8683 335.658 28.8683 333.739 28.8683C335.676 20.0834 337.614 11.2983 339.551 2.51335C340.048 0.255183 345.753 0.567687 345.325 2.51769ZM316.794 28.8683C318.432 21.4561 320.069 14.0436 321.707 6.63135C319.118 6.63189 316.528 6.63271 313.939 6.63325C311.793 6.63379 313.258 1.50058 314.752 1.50058C321.85 1.50058 328.949 1.50058 336.047 1.50058C338.207 1.50058 336.74 6.63352 335.198 6.63352C332.622 6.63352 330.047 6.63352 327.471 6.63352C325.834 14.0449 324.197 21.4566 322.56 28.8683C320.638 28.8683 318.717 28.8683 316.794 28.8683ZM291.867 2.51524C293.047 7.13611 294.228 11.757 295.408 16.3776C298.645 11.7556 301.882 7.13341 305.119 2.51146C306.277 1.07001 307.659 1.04808 308.946 1.10792C310.67 1.18781 312.066 1.70341 311.446 2.51146C311.042 3.05008 310.637 3.58896 310.233 4.12784C305.332 10.6546 298.378 21.3684 293.097 26.8252C291.985 27.9736 290.852 28.6116 289.614 28.9038C288.311 29.2112 283.875 29.2683 282.839 28.8209C281.447 28.2203 282.106 24.4043 284.656 24.7652C285.338 24.8619 286.109 24.9242 286.843 24.9001C289.241 24.8189 290.057 23.6411 291.491 21.8479C289.437 15.4049 287.382 8.96156 285.328 2.51823C284.669 0.45639 291.363 0.542223 291.867 2.51524ZM272.677 17.1342C269.037 17.1347 265.397 17.1353 261.757 17.1358C260.893 21.0467 260.03 24.9575 259.166 28.8683C257.244 28.8683 255.322 28.8683 253.401 28.8683C255.301 20.0813 257.32 11.3048 259.221 2.51769C259.75 0.069963 265.478 0.234608 264.986 2.51823C264.247 5.86338 263.508 9.20852 262.769 12.5539C266.409 12.5539 270.049 12.5539 273.688 12.5539C274.416 9.20797 275.175 5.8623 275.903 2.51661C276.343 0.494029 282.061 0.701462 281.668 2.51932C279.729 11.3023 277.789 20.0853 275.849 28.8683C273.927 28.8683 272.005 28.8683 270.082 28.8683C270.947 24.9569 271.812 21.0456 272.677 17.1342ZM230.911 2.51741C231.545 0.478317 236.606 1.22463 236.316 2.51741C235.081 8.01674 233.846 13.5161 232.611 19.0154C237.722 13.5161 242.833 8.01674 247.944 2.51741C249.252 1.00122 253.8 0.695766 253.389 2.51741C251.407 11.301 249.424 20.0848 247.442 28.8683C245.614 28.8683 243.786 28.8683 241.959 28.8683C243.22 23.395 244.481 17.9217 245.743 12.4483C240.672 17.9217 235.601 23.395 230.53 28.8683C228.661 28.8683 226.792 28.8683 224.924 28.8683C226.919 20.0848 228.915 11.301 230.911 2.51741ZM197.696 5.3356C197.997 4.49071 198.594 3.17301 199.678 2.32163C200.879 1.38684 202.459 0.862313 203.882 1.48921C205.509 1.96797 206.089 4.77153 206.091 4.98085C206.577 10.0561 207.064 15.1314 207.55 20.2066C210.277 15.1165 213.004 10.0261 215.731 4.9359C216.72 3.00728 218.371 1.23357 220.624 1.21759C221.331 1.21245 223.202 1.17102 223.888 3.64204C224.041 4.46607 224.009 5.1807 224.008 5.19018C223.332 13.0828 222.655 20.9757 221.979 28.8683C220.091 28.8683 218.203 28.8683 216.315 28.8683C216.868 23.1396 217.421 17.4109 217.975 11.6825C214.849 17.4109 211.724 23.1396 208.598 28.8683C206.646 28.8694 204.694 28.8702 202.742 28.8713C202.202 23.0971 201.661 17.3232 201.12 11.5493C199.136 17.3224 197.153 23.0952 195.17 28.8683C193.223 28.8683 191.275 28.8683 189.328 28.8683C192.117 21.0242 194.907 13.1798 197.696 5.3356Z" fill="#E31E24"/>
<path d="M0.0566406 0.474978C3.90574 0.474978 7.75484 0.474978 11.6039 0.474978C13.07 6.22128 14.5367 11.9673 16.0028 17.7136C17.4735 11.9673 18.9439 6.22128 20.4146 0.474978C24.2461 0.474978 28.0776 0.474978 31.9091 0.474978C31.9091 9.91873 31.9091 19.3622 31.9091 28.806C29.5217 28.806 27.1347 28.806 24.7473 28.806C24.7473 21.6068 24.7473 14.4074 24.7473 7.20833C22.9051 14.4074 21.0631 21.6068 19.2209 28.806C17.0578 28.806 14.8949 28.806 12.7318 28.806C10.8939 21.6068 9.05629 14.4074 7.21866 7.20833C7.21866 14.4074 7.21866 21.6068 7.21866 28.806C4.83132 28.806 2.44398 28.806 0.0566406 28.806C0.0566406 19.3622 0.0566406 9.91873 0.0566406 0.474978ZM54.9116 24.1369C51.6054 24.1369 48.2993 24.1369 44.9931 24.1369C44.5184 25.6932 44.0435 27.2497 43.5687 28.806C40.59 28.806 37.6115 28.806 34.6327 28.806C38.1875 19.3622 41.742 9.91873 45.2964 0.474978C48.4905 0.474978 51.6848 0.474978 54.8788 0.474978C58.4179 9.91873 61.9572 19.3622 65.4962 28.806C62.4405 28.806 59.3849 28.806 56.3295 28.806C55.8569 27.2497 55.3841 25.6932 54.9116 24.1369ZM53.0585 18.0036C52.0276 14.6097 50.9964 11.2156 49.9655 7.82141C48.9302 11.2156 47.8947 14.6097 46.8595 18.0036C48.9259 18.0036 50.9921 18.0036 53.0585 18.0036ZM87.1334 17.2124C89.6921 17.9839 92.2509 18.7556 94.8096 19.5271C94.2954 21.677 93.4841 23.4772 92.3698 24.9149C91.2617 26.3593 89.8901 27.4474 88.2412 28.1793C86.5994 28.9116 84.5088 29.2807 81.9698 29.2807C78.8833 29.2807 76.3708 28.8322 74.4122 27.9418C72.4603 27.0452 70.7784 25.4689 69.3607 23.2202C67.9429 20.9713 67.2307 18.0827 67.2307 14.5745C67.2307 9.89219 68.4769 6.29141 70.9698 3.77219C73.4693 1.25974 76.9975 0 81.5609 0C85.1287 0 87.9382 0.718961 89.9824 2.16312C92.0202 3.60755 93.5437 5.82321 94.5329 8.81713C91.9609 9.38662 89.3888 9.95583 86.8168 10.5253C86.5466 9.66798 86.263 9.04136 85.9663 8.64599C85.4715 7.97983 84.8714 7.46532 84.1657 7.10922C83.4535 6.74663 82.6623 6.56844 81.7852 6.56844C79.7934 6.56844 78.2702 7.36648 77.2149 8.95578C76.4172 10.1362 76.0148 11.996 76.0148 14.5217C76.0148 17.6608 76.4895 19.8042 77.4456 20.9713C78.4021 22.1319 79.7409 22.7125 81.4686 22.7125C83.1437 22.7125 84.41 22.244 85.2673 21.3011C86.1244 20.3647 86.7442 18.9993 87.1334 17.2124ZM97.0583 0.474978C105.935 0.474978 114.811 0.474978 123.688 0.474978C123.688 2.80924 123.688 5.14405 123.688 7.47858C120.707 7.47858 117.726 7.47858 114.745 7.47858C114.745 14.5875 114.745 21.6967 114.745 28.806C111.831 28.806 108.916 28.806 106.001 28.806C106.001 21.6967 106.001 14.5875 106.001 7.47858C103.02 7.47858 100.039 7.47858 97.0583 7.47858C97.0583 5.14405 97.0583 2.80924 97.0583 0.474978ZM127.612 0.474978C135.42 0.474978 143.228 0.474978 151.036 0.474978C151.036 2.49295 151.036 4.51093 151.036 6.5289C146.156 6.5289 141.276 6.5289 136.396 6.5289C136.396 8.03236 136.396 9.53609 136.396 11.0396C140.92 11.0396 145.444 11.0396 149.968 11.0396C149.968 12.9652 149.968 14.8908 149.968 16.8167C145.444 16.8167 140.92 16.8167 136.396 16.8167C136.396 18.6763 136.396 20.5361 136.396 22.3957C141.421 22.3957 146.447 22.3957 151.472 22.3957C151.472 24.5325 151.472 26.6691 151.472 28.806C143.519 28.806 135.565 28.806 127.612 28.806C127.612 19.3622 127.612 9.91873 127.612 0.474978ZM156.147 0.474978C161.001 0.474978 165.855 0.474978 170.709 0.474978C173.881 0.474978 176.255 1.2267 177.837 2.73693C179.414 4.24689 180.205 6.39676 180.205 9.1865C180.205 12.0485 179.341 14.291 177.62 15.8998C175.899 17.5156 173.267 18.3202 169.733 18.3202C168.132 18.3202 166.532 18.3202 164.932 18.3202C164.932 21.8154 164.932 25.3108 164.932 28.806C162.004 28.806 159.076 28.806 156.147 28.806C156.147 19.3622 156.147 9.91873 156.147 0.474978ZM164.932 12.5828C165.651 12.5828 166.37 12.5828 167.088 12.5828C168.79 12.5828 169.983 12.286 170.669 11.6992C171.355 11.1121 171.698 10.3604 171.698 9.44376C171.698 8.55338 171.401 7.80164 170.801 7.18179C170.208 6.56167 169.086 6.25188 167.438 6.25188C166.602 6.25188 165.767 6.25188 164.932 6.25188C164.932 8.3622 164.932 10.4725 164.932 12.5828Z" fill="#234E9B"/>
<path d="M203.633 61.5815C204.234 61.64 204.712 61.8385 205.068 62.1768C205.422 62.5153 205.6 62.968 205.6 63.5354C205.6 64.2909 205.351 64.8558 204.854 65.2324C204.358 65.6061 203.465 65.7946 202.178 65.7946C200.673 65.7946 199.167 65.7946 197.662 65.7946C197.662 63.1538 197.662 60.513 197.662 57.8722C199.29 57.8722 200.917 57.8722 202.544 57.8722C203.427 57.8722 204.104 58.0428 204.567 58.381C205.032 58.7192 205.264 59.1926 205.264 59.8005C205.264 60.2305 205.114 60.6021 204.811 60.92C204.508 61.2355 204.114 61.4464 203.633 61.551C203.633 61.5612 203.633 61.5713 203.633 61.5815ZM200.7 60.8945C200.956 60.8945 201.212 60.8945 201.468 60.8945C201.975 60.8945 202.226 60.6603 202.226 60.1924C202.226 59.816 201.959 59.6275 201.422 59.6275C201.182 59.6275 200.941 59.6275 200.7 59.6275C200.7 60.0499 200.7 60.4724 200.7 60.8945ZM200.7 63.9321C201.032 63.9321 201.365 63.9321 201.697 63.9321C201.946 63.9321 202.148 63.8736 202.3 63.7593C202.455 63.6448 202.532 63.4793 202.532 63.2608C202.532 62.7823 202.254 62.5432 201.697 62.5432C201.365 62.5432 201.032 62.5432 200.7 62.5432C200.7 63.0062 200.7 63.469 200.7 63.9321ZM212.357 54.865C214.466 54.865 216.575 54.865 218.684 54.865C219.737 54.865 220.546 55.1271 221.111 55.6487C221.676 56.1702 221.958 56.8163 221.958 57.5873C221.958 58.2334 221.757 58.788 221.353 59.2486C221.085 59.559 220.691 59.8005 220.175 59.9812C220.961 60.1696 221.536 60.4927 221.907 60.953C222.276 61.4137 222.462 61.991 222.462 62.6856C222.462 63.2529 222.33 63.7617 222.068 64.2145C221.803 64.6675 221.442 65.0237 220.986 65.2882C220.701 65.451 220.274 65.5707 219.702 65.6443C218.941 65.7437 218.437 65.7946 218.188 65.7946C216.244 65.7946 214.3 65.7946 212.357 65.7946C212.357 62.1513 212.357 58.508 212.357 54.865ZM215.761 59.1544C216.252 59.1544 216.743 59.1544 217.234 59.1544C217.76 59.1544 218.129 59.0629 218.336 58.8823C218.542 58.6992 218.646 58.4368 218.646 58.0937C218.646 57.7755 218.542 57.5261 218.336 57.3479C218.129 57.1673 217.768 57.0785 217.257 57.0785C216.758 57.0785 216.26 57.0785 215.761 57.0785C215.761 57.7706 215.761 58.4622 215.761 59.1544ZM215.761 63.4438C216.335 63.4438 216.909 63.4438 217.483 63.4438C218.066 63.4438 218.475 63.3396 218.715 63.1335C218.953 62.9274 219.073 62.6526 219.073 62.304C219.073 61.9807 218.956 61.7213 218.72 61.5255C218.483 61.3297 218.068 61.2303 217.476 61.2303C216.904 61.2303 216.332 61.2303 215.761 61.2303C215.761 61.9683 215.761 62.7059 215.761 63.4438ZM226.769 60.4366C225.802 60.3348 224.836 60.233 223.869 60.1312C223.978 59.6223 224.136 59.2232 224.342 58.9332C224.548 58.6404 224.843 58.3886 225.232 58.1749C225.51 58.0198 225.891 57.9001 226.377 57.8164C226.863 57.7322 227.39 57.6891 227.957 57.6891C228.865 57.6891 229.593 57.74 230.145 57.8419C230.695 57.9434 231.155 58.1571 231.522 58.4804C231.781 58.7043 231.984 59.022 232.132 59.4317C232.282 59.8414 232.356 60.233 232.356 60.6072C232.356 61.7741 232.356 62.9409 232.356 64.1078C232.356 64.4818 232.379 64.7742 232.427 64.9855C232.473 65.1967 232.577 65.4664 232.735 65.7946C231.788 65.7946 230.84 65.7946 229.893 65.7946C229.779 65.591 229.705 65.4385 229.669 65.3315C229.636 65.2246 229.601 65.0594 229.565 64.833C229.168 65.2146 228.774 65.4867 228.38 65.6494C227.843 65.8682 227.22 65.9777 226.51 65.9777C225.566 65.9777 224.848 65.7589 224.36 65.3185C223.869 64.8812 223.625 64.3393 223.625 63.6981C223.625 63.095 223.8 62.5992 224.154 62.2098C224.508 61.8207 225.159 61.5306 226.108 61.3422C227.245 61.1133 227.983 60.953 228.321 60.8591C228.659 60.7673 229.018 60.6478 229.395 60.4978C229.395 60.1239 229.318 59.8642 229.163 59.7141C229.011 59.5641 228.741 59.4905 228.354 59.4905C227.858 59.4905 227.487 59.569 227.237 59.7293C227.044 59.8566 226.889 60.0905 226.769 60.4366ZM229.395 62.0243C228.977 62.1743 228.542 62.3065 228.087 62.4237C227.471 62.5889 227.08 62.7519 226.917 62.912C226.746 63.0774 226.662 63.2656 226.662 63.4769C226.662 63.7187 226.746 63.9169 226.912 64.0696C227.08 64.2224 227.324 64.2987 227.647 64.2987C227.985 64.2987 228.301 64.2145 228.593 64.0493C228.883 63.8839 229.089 63.6829 229.212 63.4438C229.334 63.2047 229.395 62.8941 229.395 62.5126C229.395 62.3498 229.395 62.1871 229.395 62.0243ZM246.603 65.7946C242.436 65.7946 238.268 65.7946 234.101 65.7946C234.101 63.1538 234.101 60.513 234.101 57.8722C235.114 57.8722 236.126 57.8722 237.139 57.8722C237.139 59.7751 237.139 61.6782 237.139 63.5811C237.704 63.5811 238.268 63.5811 238.833 63.5811C238.833 61.6782 238.833 59.7751 238.833 57.8722C239.846 57.8722 240.858 57.8722 241.871 57.8722C241.871 59.7751 241.871 61.6782 241.871 63.5811C242.436 63.5811 243 63.5811 243.565 63.5811C243.565 61.6782 243.565 59.7751 243.565 57.8722C244.578 57.8722 245.59 57.8722 246.603 57.8722C246.603 60.513 246.603 63.1538 246.603 65.7946ZM257.403 62.5889C255.372 62.5889 253.342 62.5889 251.312 62.5889C251.368 63.0747 251.498 63.4387 251.709 63.6778C252.001 64.0214 252.385 64.1918 252.859 64.1918C253.159 64.1918 253.444 64.1181 253.711 63.9705C253.876 63.8763 254.054 63.7108 254.243 63.4741C255.24 63.5659 256.237 63.6575 257.234 63.749C256.776 64.5427 256.225 65.1152 255.578 65.4588C254.932 65.8046 254.003 65.9777 252.795 65.9777C251.744 65.9777 250.92 65.8301 250.317 65.5325C249.717 65.2376 249.218 64.7667 248.821 64.1233C248.427 63.4769 248.228 62.7186 248.228 61.8486C248.228 60.6097 248.625 59.6047 249.419 58.8389C250.21 58.0734 251.307 57.6891 252.703 57.6891C253.838 57.6891 254.731 57.8622 255.388 58.2053C256.044 58.5489 256.545 59.045 256.889 59.6987C257.232 60.3502 257.403 61.1997 257.403 62.2455C257.403 62.3598 257.403 62.4746 257.403 62.5889ZM254.319 61.1388C254.26 60.5487 254.1 60.1263 253.843 59.872C253.586 59.6175 253.251 59.4905 252.831 59.4905C252.347 59.4905 251.961 59.6835 251.671 60.0678C251.488 60.3069 251.371 60.663 251.32 61.1388C252.319 61.1388 253.319 61.1388 254.319 61.1388ZM269.741 65.7946C268.886 65.7946 268.032 65.7946 267.177 65.7946C267.177 64.1365 267.177 62.4787 267.177 60.8209C266.552 62.4787 265.927 64.1365 265.302 65.7946C264.693 65.7946 264.084 65.7946 263.475 65.7946C262.796 64.1365 262.117 62.4787 261.437 60.8209C261.437 62.4787 261.437 64.1365 261.437 65.7946C260.582 65.7946 259.728 65.7946 258.873 65.7946C258.873 63.1538 258.873 60.513 258.873 57.8722C260.085 57.8722 261.297 57.8722 262.508 57.8722C263.136 59.3903 263.764 60.9081 264.391 62.4262C264.963 60.9081 265.536 59.3903 266.108 57.8722C267.319 57.8722 268.53 57.8722 269.741 57.8722C269.741 60.513 269.741 63.1538 269.741 65.7946ZM285.123 65.7946C284.11 65.7946 283.098 65.7946 282.085 65.7946C282.085 63.8914 282.085 61.9886 282.085 60.0854C281.317 60.0854 280.549 60.0854 279.78 60.0854C279.78 61.9886 279.78 63.8914 279.78 65.7946C278.768 65.7946 277.755 65.7946 276.743 65.7946C276.743 63.1538 276.743 60.513 276.743 57.8722C279.536 57.8722 282.329 57.8722 285.123 57.8722C285.123 60.513 285.123 63.1538 285.123 65.7946ZM286.944 68.8015C286.944 65.1585 286.944 61.5155 286.944 57.8722C287.892 57.8722 288.84 57.8722 289.788 57.8722C289.788 58.2616 289.788 58.6507 289.788 59.0399C290.18 58.5465 290.542 58.2131 290.87 58.0401C291.31 57.8061 291.801 57.6891 292.338 57.6891C293.396 57.6891 294.213 58.0937 294.793 58.9053C295.37 59.7169 295.66 60.7215 295.66 61.9149C295.66 63.2353 295.345 64.2427 294.714 64.937C294.083 65.6316 293.287 65.9777 292.322 65.9777C291.854 65.9777 291.429 65.8989 291.045 65.7413C290.658 65.5807 290.315 65.3467 290.012 65.0339C290.012 66.2899 290.012 67.5456 290.012 68.8015C288.99 68.8015 287.967 68.8015 286.944 68.8015ZM289.989 61.8589C289.989 62.4898 290.122 62.9553 290.384 63.2608C290.646 63.566 290.979 63.7187 291.381 63.7187C291.732 63.7187 292.027 63.5735 292.266 63.2811C292.503 62.9883 292.623 62.4922 292.623 61.7928C292.623 61.1464 292.498 60.6733 292.251 60.3706C292.002 60.0678 291.702 59.9178 291.343 59.9178C290.956 59.9178 290.636 60.0705 290.376 60.3757C290.119 60.6809 289.989 61.1743 289.989 61.8589ZM305.923 65.7946C304.967 65.7946 304.01 65.7946 303.053 65.7946C303.053 64.4953 303.053 63.196 303.053 61.897C302.063 63.196 301.072 64.4953 300.082 65.7946C299.118 65.7946 298.155 65.7946 297.192 65.7946C297.192 63.1538 297.192 60.513 297.192 57.8722C298.148 57.8722 299.105 57.8722 300.062 57.8722C300.062 59.1893 300.062 60.5062 300.062 61.8231C301.066 60.5062 302.07 59.1893 303.074 57.8722C304.023 57.8722 304.973 57.8722 305.923 57.8722C305.923 60.513 305.923 63.1538 305.923 65.7946ZM313.743 62.6959C314.705 62.8029 315.667 62.9095 316.628 63.0162C316.468 63.6193 316.209 64.1408 315.845 64.5833C315.484 65.0236 315.018 65.367 314.453 65.6113C313.891 65.8555 313.174 65.9777 312.303 65.9777C311.461 65.9777 310.762 65.8989 310.202 65.7437C309.645 65.5858 309.164 65.3315 308.76 64.9803C308.358 64.6318 308.042 64.2197 307.813 63.7466C307.584 63.2732 307.47 62.6474 307.47 61.8664C307.47 61.0524 307.61 60.373 307.887 59.8311C308.09 59.4317 308.37 59.0756 308.724 58.7601C309.078 58.4446 309.439 58.208 309.813 58.0552C310.406 57.8113 311.164 57.6891 312.087 57.6891C313.382 57.6891 314.367 57.9207 315.046 58.381C315.725 58.8441 316.201 59.5184 316.476 60.406C315.524 60.5333 314.573 60.6603 313.621 60.7876C313.532 60.4494 313.37 60.1951 313.133 60.022C312.897 59.8514 312.578 59.7651 312.179 59.7651C311.678 59.7651 311.271 59.9457 310.958 60.3042C310.647 60.6654 310.492 61.21 310.492 61.9428C310.492 62.5941 310.647 63.0877 310.955 63.426C311.263 63.7644 311.655 63.9321 312.133 63.9321C312.53 63.9321 312.866 63.8305 313.135 63.6293C313.408 63.4259 313.609 63.1154 313.743 62.6959ZM317.122 57.8722C318.189 57.8722 319.256 57.8722 320.322 57.8722C320.866 59.6302 321.41 61.3882 321.953 63.1459C322.455 61.3882 322.957 59.6302 323.459 57.8722C324.456 57.8722 325.452 57.8722 326.449 57.8722C325.404 60.6955 324.359 63.5183 323.314 66.3414C322.958 67.3032 322.592 67.9518 322.22 68.2876C321.694 68.7634 320.892 69 319.813 69C319.376 69 318.702 68.9388 317.788 68.8218C317.709 68.1153 317.629 67.4091 317.549 66.7029C317.987 66.8401 318.473 66.9089 319.009 66.9089C319.368 66.9089 319.659 66.8274 319.88 66.6644C320.101 66.5044 320.287 66.2143 320.442 65.797C319.335 63.1554 318.229 60.5138 317.122 57.8722ZM333.961 60.0854C333.228 60.0854 332.496 60.0854 331.763 60.0854C331.763 61.9886 331.763 63.8914 331.763 65.7946C330.751 65.7946 329.738 65.7946 328.725 65.7946C328.725 63.8914 328.725 61.9886 328.725 60.0854C327.993 60.0854 327.26 60.0854 326.527 60.0854C326.527 59.3477 326.527 58.6098 326.527 57.8722C329.005 57.8722 331.483 57.8722 333.961 57.8722C333.961 58.6098 333.961 59.3477 333.961 60.0854ZM340.924 62.6959C341.886 62.8029 342.848 62.9095 343.809 63.0162C343.649 63.6193 343.389 64.1408 343.026 64.5833C342.664 65.0236 342.199 65.367 341.634 65.6113C341.072 65.8555 340.354 65.9777 339.484 65.9777C338.642 65.9777 337.942 65.8989 337.383 65.7437C336.826 65.5858 336.345 65.3315 335.941 64.9803C335.538 64.6318 335.223 64.2197 334.994 63.7466C334.765 63.2732 334.651 62.6474 334.651 61.8664C334.651 61.0524 334.79 60.373 335.068 59.8311C335.271 59.4317 335.551 59.0756 335.905 58.7601C336.258 58.4446 336.62 58.208 336.994 58.0552C337.586 57.8113 338.345 57.6891 339.268 57.6891C340.563 57.6891 341.548 57.9207 342.227 58.381C342.906 58.8441 343.382 59.5184 343.657 60.406C342.705 60.5333 341.754 60.6603 340.802 60.7876C340.713 60.4494 340.55 60.1951 340.314 60.022C340.077 59.8514 339.759 59.7651 339.36 59.7651C338.858 59.7651 338.451 59.9457 338.139 60.3042C337.828 60.6654 337.673 61.21 337.673 61.9428C337.673 62.5941 337.828 63.0877 338.136 63.426C338.444 63.7644 338.836 63.9321 339.314 63.9321C339.711 63.9321 340.047 63.8305 340.316 63.6293C340.588 63.4259 340.789 63.1154 340.924 62.6959ZM351.843 60.0854C351.111 60.0854 350.378 60.0854 349.645 60.0854C349.645 61.9886 349.645 63.8914 349.645 65.7946C348.633 65.7946 347.62 65.7946 346.608 65.7946C346.608 63.8914 346.608 61.9886 346.608 60.0854C345.875 60.0854 345.142 60.0854 344.41 60.0854C344.41 59.3477 344.41 58.6098 344.41 57.8722C346.887 57.8722 349.365 57.8722 351.843 57.8722C351.843 58.6098 351.843 59.3477 351.843 60.0854ZM358.87 61.5815C359.471 61.64 359.949 61.8385 360.305 62.1768C360.659 62.5153 360.837 62.968 360.837 63.5354C360.837 64.2909 360.587 64.8558 360.091 65.2324C359.595 65.6061 358.702 65.7946 357.415 65.7946C355.91 65.7946 354.404 65.7946 352.899 65.7946C352.899 63.1538 352.899 60.513 352.899 57.8722C354.526 57.8722 356.154 57.8722 357.781 57.8722C358.664 57.8722 359.341 58.0428 359.804 58.381C360.269 58.7192 360.501 59.1926 360.501 59.8005C360.501 60.2305 360.351 60.6021 360.048 60.92C359.745 61.2355 359.351 61.4464 358.87 61.551C358.87 61.5612 358.87 61.5713 358.87 61.5815ZM355.937 60.8945C356.193 60.8945 356.449 60.8945 356.705 60.8945C357.211 60.8945 357.463 60.6603 357.463 60.1924C357.463 59.816 357.196 59.6275 356.659 59.6275C356.418 59.6275 356.178 59.6275 355.937 59.6275C355.937 60.0499 355.937 60.4724 355.937 60.8945ZM355.937 63.9321C356.269 63.9321 356.602 63.9321 356.934 63.9321C357.183 63.9321 357.385 63.8736 357.537 63.7593C357.692 63.6448 357.769 63.4793 357.769 63.2608C357.769 62.7823 357.491 62.5432 356.934 62.5432C356.602 62.5432 356.269 62.5432 355.937 62.5432C355.937 63.0062 355.937 63.469 355.937 63.9321ZM371.102 65.7946C370.146 65.7946 369.189 65.7946 368.232 65.7946C368.232 64.4953 368.232 63.196 368.232 61.897C367.242 63.196 366.251 64.4953 365.261 65.7946C364.297 65.7946 363.334 65.7946 362.371 65.7946C362.371 63.1538 362.371 60.513 362.371 57.8722C363.327 57.8722 364.284 57.8722 365.24 57.8722C365.24 59.1893 365.24 60.5062 365.24 61.8231C366.245 60.5062 367.248 59.1893 368.252 57.8722C369.202 57.8722 370.152 57.8722 371.102 57.8722C371.102 60.513 371.102 63.1538 371.102 65.7946ZM381.853 65.7946C380.897 65.7946 379.94 65.7946 378.984 65.7946C378.984 64.4953 378.984 63.196 378.984 61.897C377.993 63.196 377.002 64.4953 376.012 65.7946C375.049 65.7946 374.085 65.7946 373.122 65.7946C373.122 63.1538 373.122 60.513 373.122 57.8722C374.078 57.8722 375.035 57.8722 375.992 57.8722C375.992 59.1893 375.992 60.5062 375.992 61.8231C376.996 60.5062 378 59.1893 379.004 57.8722C379.954 57.8722 380.903 57.8722 381.853 57.8722C381.853 60.513 381.853 63.1538 381.853 65.7946Z" fill="#234E9B"/>
<path fill-rule="evenodd" clip-rule="evenodd" d="M4.31243 57.1782C52.593 57.1776 100.873 57.1771 149.154 57.1768C166.077 56.9919 174.234 36.817 195.25 36.404C256.045 36.4024 316.84 36.3994 377.634 36.3994C380.019 36.3994 381.971 38.3508 381.971 40.7357C381.971 43.1208 380.02 45.0725 377.634 45.0725C316.884 45.0725 256.129 45.0278 195.377 45.0289C176.44 45.4337 170.011 65.5921 149.218 65.802C100.916 65.8025 52.6138 65.8033 4.31243 65.8033C1.94053 65.8033 0 63.8628 0 61.4909C0 59.1187 1.94026 57.1782 4.31243 57.1782Z" fill="#E31E24"/>
</svg>
